<?xml version="1.0" encoding="UTF-8"?>
<svg xmlns="http://www.w3.org/2000/svg" viewBox="0 0 999.15 852.93">
  <defs>
    <style>
      .cls-1 {
        fill: #851c4d;
      }

      .cls-2 {
        fill: none;
        stroke: #3a2747;
        stroke-miterlimit: 10;
        stroke-width: .29px;
      }

      .cls-3 {
        fill: #fa69a1;
      }

      .cls-4 {
        fill: #fbb5cf;
      }

      .cls-5 {
        fill: #3a2747;
      }
    </style>
  </defs>
  <g id="tails_col">
    <g>
      <g>
        <path class="cls-4" d="m931.86,279.85c.96.63-106.17,81.78-105.76,82.57.4.79,25.96,16.05,28.42,17.15s4.37,2.86.48,2.86c-28.97-.63-73.13,44.42-72.34,45.6-9.04-5.6-30.58-16.69-34.7-16.37,12.07-6.04,39.71-29.22,40.98-34.62s-43.52,5.4-49.23,2.54c6.99-9.53,49.36-67.65,55.05-72.73-12.72,0-84.91,48.91-90.31,55.58,3.49-15.56-7.88-48.28-9.66-55.58l-.23-.26c13.48-12.75,26.34-20.9,31.28-20.29.31.85-4.87,23.82.21,32.93,78.77-56.32,136.89-79.54,205.81-39.38Z"/>
        <path class="cls-4" d="m894.39,510.6c.24.07-5.32,11.35-6.9,20.48,12.3,1.2,38.61-25.83,105.96-55.58-51.67,117.2-195.55,196.03-194.97,196.61.58.57.69,2.22,17.31,13.33-14.74,1.19-29.77,3.06-44.55,5.34,6.32-9.52,55.11-70.17,56.41-72.46,1.38-2.43,7.94-9.53,0-8.26-7.94,1.27-82.63,26.68-86.9,27.1-4.26.43-3.36-1.29-1.82-3.11,1.53-1.83,69.71-46.27,71.19-48.02,1.48-1.74,8.37-7.2.27-6.34-8.73-.48-107.88,34.83-107.25,33.24,1.48-3.59,74.88-48.03,77.82-49.37,2.86-1.71,2.94-3.3-.33-2.46-1.97,1.13-61.21,24.73-81.82,30.96,25.73-29.34,46.25-47.12,73.47-52.38,28.75-6.36,63.83-32.24,63.36-30.66-.47,1.6-4.92,20.97-9.21,31.93,11.75,2.38,62.97-28.43,65.99-30.49s1.75.08,1.98.16Z"/>
        <path class="cls-4" d="m882.25,809.69c3.07-1.45,2.54-1.67,1.26-2.48-6.12-4.76-40.42-8.17-45.34-9.36-4.93-1.19-3.42-3.27.02-3.95,43.54-6.09,42.88-20,40.13-19.64-2.75.37-61.2-5.15-62.7-5.55-1.52-.4-2.23-.56-1.04-1.27,1.19-.72,12.15-5.56,15.33-7.23,3.17-1.67,4.59-3.81.4-6.06-10.81-4.86-64.37-13.34-70.54-23.16l-.09-.49c8.63-1.74,14.57-3.03,16.23-3.48,8.42-2.23,7.71-1.04,34.7,12.63,27,13.66,70.83,10.16,153.41-16.21-47.32,120.07-93.16,129.15-137.95,105.82,1.6,4.44,3.6,4.72,15.36,18.69-9.62,1.21-19.25,1.87-28.84,2.03-4.02-1.52-12.35-11.7-16.06-16-3.92-4.56-4.34-7.16-1.59-8.54s18.53-1.32,39.07-4.28c20.55-2.97,45.19-10.02,48.24-11.46Z"/>
        <path class="cls-1" d="m883.51,807.21c1.28.82,1.81,1.04-1.26,2.48-3.06,1.45-27.7,8.49-48.24,11.46-20.54,2.96-36.31,2.9-39.07,4.28s-2.33,3.98,1.59,8.54c3.71,4.3,12.03,14.48,16.06,16-105.69,1.9-205.84-54.82-217.05-64.72,6.67-5.4,30.02-31.46,31.92-37.83,18.09,4.57,97.26-9.89,132.23-16.93l.09.49c6.17,9.82,59.73,18.3,70.54,23.16,4.2,2.25,2.78,4.4-.4,6.06-3.18,1.67-14.15,6.51-15.33,7.23-1.19.71-.48.87,1.04,1.27,1.5.4,59.95,5.92,62.7,5.55,2.75-.36,3.42,13.55-40.13,19.64-3.44.69-4.96,2.76-.02,3.95,4.92,1.19,39.22,4.61,45.34,9.36Z"/>
        <path class="cls-3" d="m827.64,610.06c7.94-1.27,1.38,5.83,0,8.26-1.29,2.3-50.09,62.95-56.41,72.46-60.86,9.45-117.22,26.14-129.35,32.27-.45.23-.94-.26-.69-.71,7.87-14.26,39.94-80.77,39.54-109.01,6.37-7.66,12.35-14.76,18.06-21.28,20.61-6.23,79.85-29.83,81.82-30.96,3.27-.84,3.18.75.33,2.46-2.94,1.34-76.34,45.78-77.82,49.37-.63,1.6,98.52-33.71,107.25-33.24,8.1-.85,1.21,4.61-.27,6.34-1.48,1.75-69.67,46.19-71.19,48.02-1.54,1.82-2.44,3.55,1.82,3.11,4.27-.42,78.96-25.83,86.9-27.1Z"/>
        <path class="cls-1" d="m798.99,441.95c3.18,3.17,3.6,5.18-1.38,5.18-32.92,1.48-48.53,18.69-64.42,33.62-23.19,23.5-22.47,70.88-49.4,91.64,9.99-49.42,1.24-167.36-25.55-214.7,6.99-18.86,22.01-37.56,36.31-51.09l.23.26c1.77,7.3,13.14,40.02,9.66,55.58,5.4-6.67,77.58-55.58,90.31-55.58-5.69,5.08-48.07,63.2-55.05,72.73,5.71,2.86,50.51-7.94,49.23-2.54s-28.91,28.58-40.98,34.62c4.13-.31,25.67,10.78,34.7,16.37.01.01.02.01.03.02,1.63.4,13.12,10.71,16.29,13.89Z"/>
        <path class="cls-3" d="m561.85,285.06c3.24,12.2,2.29,23.35-5.9,33.95-19.36,25-40.72,79.44-44.88,92.58-5.84-.83-15.43-.98-20.68,0-14.3-32.08-39.23-82.57-56.42-101.22-6.13-6.65-10.94-13.21-14.71-19.38,13.29,7.8,35.42,20.07,37.47,20.97,2.8,1.21,4.83.58,3.48-1.39-3.49-5.07-21.94-66.75-18.83-66.83,3.1-.07,25.53,18.3,26.2,19.05.68.77,4.63,2.79,2.97-2.18-13.43-73.99,5.2-110.91,5.85-108.57.65,2.33,26.24,81.87,28.22,85.94s4.56,2.37,5.07-.3,2.73-26.89,3.28-30.11c.55-3.23,2.31-22.17,4.47-17.88,3.13,7.66,25.74,46.83,37.79,61.95h0c1.76,11.82,3.94,23.36,6.61,33.42Z"/>
        <path class="cls-4" d="m533.08,174.18c7.58.01,19.18-8.93,16.68-4.29-1.22,7,.1,45.65,5.48,81.75-12.06-15.11-34.67-54.28-37.79-61.95-2.16-4.29-3.92,14.65-4.47,17.88-.55,3.22-2.76,27.44-3.28,30.11s-3.09,4.37-5.07.3-27.57-83.61-28.22-85.94c-.65-2.34-19.29,34.58-5.85,108.57,1.66,4.97-2.3,2.95-2.97,2.18-.68-.76-23.1-19.12-26.2-19.05-3.1.08,15.35,61.76,18.83,66.83,1.35,1.97-.68,2.6-3.48,1.39-2.05-.9-24.17-13.17-37.47-20.97-12.51-20.57-13.29-36.72-11.89-36.52,5.64,1,12.44,14.98,21.6,18.11C415.41,161.47,510.24-4.38,511.67,3.16c-8.86,34.23,37.64,124.86,21.41,171.01Z"/>
        <path class="cls-1" d="m371.68,747.42c1.9,6.37,25.25,32.43,31.92,37.83-11.22,9.9-111.37,66.62-217.04,64.72,4.02-1.53,12.34-11.7,16.05-16,3.92-4.56,4.34-7.16,1.59-8.54s-18.53-1.32-39.07-4.28c-20.54-2.97-45.19-10.02-48.24-11.46s-2.54-1.67-1.25-2.48c6.11-4.76,40.42-8.17,45.34-9.36,4.92-1.19,3.42-3.27-.03-3.95-43.53-6.09-42.88-20-40.12-19.64,2.75.37,61.19-5.15,62.7-5.55,1.5-.4,2.22-.56,1.03-1.27-1.19-.72-12.15-5.56-15.32-7.23s-4.61-3.81-.4-6.06c10.8-4.86,64.37-13.34,70.53-23.16l.09-.49c34.97,7.04,114.14,21.5,132.23,16.93Z"/>
        <path class="cls-3" d="m357.93,722.34c.26.45-.22.94-.69.71-12.13-6.12-68.48-22.82-129.34-32.26-6.3-9.48-55.11-70.18-56.42-72.48-1.38-2.43-7.93-9.53,0-8.26,7.94,1.27,82.64,26.68,86.9,27.1,4.26.43,3.36-1.29,1.83-3.11-1.54-1.83-69.72-46.27-71.2-48.02-1.48-1.74-8.36-7.2-.27-6.34,8.73-.48,107.89,34.83,107.25,33.24-1.48-3.59-74.87-48.03-77.8-49.37-2.86-1.71-2.94-3.3.31-2.46,1.97,1.13,61.22,24.73,81.83,30.96,5.71,6.52,11.7,13.62,18.06,21.28-.41,28.24,31.67,94.75,39.53,109.01Z"/>
        <path class="cls-1" d="m340.89,357.68c-26.79,47.33-35.53,165.28-25.55,214.7-26.91-20.76-26.2-68.14-49.39-91.64-15.88-14.93-31.5-32.14-64.43-33.62-4.98,0-4.55-2.01-1.38-5.18,3.17-3.18,14.67-13.49,16.29-13.89.01-.01.02-.01.03-.02,9.04-5.6,30.58-16.69,34.7-16.37-12.07-6.04-39.7-29.22-40.97-34.62s43.51,5.4,49.22,2.54c-6.99-9.53-49.36-67.65-55.05-72.73,12.73,0,84.92,48.91,90.32,55.58-3.5-15.56,7.87-48.28,9.66-55.58l.23-.24c14.32,13.53,29.33,32.22,36.3,51.08Z"/>
        <path class="cls-4" d="m304.58,306.61l-.23.24c-1.78,7.3-13.15,40.02-9.66,55.58-5.4-6.67-77.58-55.58-90.32-55.58,5.69,5.08,48.07,63.2,55.05,72.73-5.71,2.86-50.49-7.94-49.22-2.54s28.9,28.58,40.97,34.62c-4.13-.31-25.67,10.78-34.7,16.37.8-1.19-43.37-46.23-72.34-45.6-3.88,0-1.98-1.75.48-2.86s28.03-16.36,28.43-17.15-106.73-81.94-105.77-82.57c68.92-40.16,127.05-16.94,205.81,39.38,5.08-9.11-.1-32.08.22-32.93,4.93-.61,17.8,7.56,31.28,20.3Z"/>
        <path class="cls-4" d="m296,612.92c.64,1.6-98.52-33.71-107.25-33.24-8.09-.85-1.21,4.61.27,6.34,1.48,1.75,69.67,46.19,71.2,48.02,1.53,1.82,2.43,3.55-1.83,3.11-4.26-.42-78.96-25.83-86.9-27.1-7.93-1.27-1.38,5.83,0,8.26,1.31,2.3,50.12,62.99,56.42,72.48-14.78-2.3-29.82-4.16-44.56-5.35,16.63-11.11,16.73-12.76,17.32-13.33.58-.58-143.31-79.41-194.97-196.61,67.33,29.75,93.64,56.78,105.96,55.58-1.6-9.13-7.15-20.41-6.92-20.48.24-.08-1.03-2.23,1.98-.16,3.02,2.06,54.24,32.87,65.99,30.49-4.29-10.96-8.73-30.33-9.21-31.93-.48-1.59,34.62,24.3,63.37,30.66,27.22,5.26,47.74,23.04,73.47,52.38-20.61-6.23-79.86-29.83-81.83-30.96-3.25-.84-3.17.75-.31,2.46,2.94,1.34,76.32,45.78,77.8,49.37Z"/>
        <path class="cls-4" d="m239.45,730.49l-.09.49c-6.16,9.82-59.73,18.3-70.53,23.16-4.21,2.25-2.78,4.4.4,6.06s14.13,6.51,15.32,7.23c1.19.71.48.87-1.03,1.27-1.52.4-59.95,5.92-62.7,5.55-2.76-.36-3.42,13.55,40.12,19.64,3.45.69,4.96,2.76.03,3.95-4.92,1.19-39.23,4.61-45.34,9.36-1.29.82-1.81,1.04,1.25,2.48s27.71,8.49,48.24,11.46c20.54,2.96,36.31,2.9,39.07,4.28s2.33,3.98-1.59,8.54c-3.71,4.3-12.02,14.47-16.05,16-9.59-.16-19.22-.82-28.84-2.03,11.74-13.97,13.76-14.25,15.35-18.69-44.78,23.33-90.63,14.25-137.95-105.82,82.59,26.37,126.41,29.86,153.42,16.21,27-13.67,26.27-14.86,34.69-12.63,1.67.44,7.6,1.74,16.23,3.48Z"/>
      </g>
      <g>
        <path class="cls-2" d="m239.45,730.49c34.97,7.04,114.14,21.5,132.23,16.93,1.9,6.37,25.25,32.43,31.92,37.83-11.22,9.9-111.37,66.62-217.04,64.72-9.59-.16-19.22-.82-28.84-2.03,11.74-13.97,13.76-14.25,15.35-18.69-44.78,23.33-90.63,14.25-137.95-105.82,82.59,26.37,126.41,29.86,153.42,16.21,27-13.67,26.27-14.86,34.69-12.63,1.67.44,7.6,1.74,16.23,3.48Z"/>
        <path class="cls-2" d="m759.68,730.49c-34.97,7.04-114.14,21.5-132.23,16.93-1.9,6.37-25.25,32.43-31.92,37.83,11.22,9.9,111.37,66.62,217.05,64.72,9.59-.16,19.22-.82,28.84-2.03-11.75-13.97-13.76-14.25-15.36-18.69,44.79,23.33,90.63,14.25,137.95-105.82-82.57,26.37-126.41,29.86-153.41,16.21-27-13.67-26.28-14.86-34.7-12.63-1.67.44-7.6,1.74-16.23,3.48Z"/>
        <path class="cls-2" d="m300.34,592.04c5.71,6.52,11.7,13.62,18.06,21.28-.41,28.24,31.67,94.75,39.53,109.01.26.45-.22.94-.69.71-12.13-6.12-68.48-22.82-129.34-32.26-14.78-2.3-29.82-4.16-44.56-5.35,16.63-11.11,16.73-12.76,17.32-13.33.58-.58-143.31-79.41-194.97-196.61,67.33,29.75,93.64,56.78,105.96,55.58-1.6-9.13-7.15-20.41-6.92-20.48.24-.08-1.03-2.23,1.98-.16,3.02,2.06,54.24,32.87,65.99,30.49-4.29-10.96-8.73-30.33-9.21-31.93-.48-1.59,34.62,24.3,63.37,30.66,27.22,5.26,47.74,23.04,73.47,52.38Z"/>
        <path class="cls-2" d="m698.81,592.04c-5.71,6.52-11.7,13.62-18.06,21.28.4,28.24-31.67,94.75-39.54,109.01-.26.45.23.94.69.71,12.13-6.12,68.49-22.82,129.35-32.27,14.78-2.29,29.81-4.15,44.55-5.34-16.62-11.11-16.72-12.76-17.31-13.33-.58-.58,143.3-79.41,194.97-196.61-67.34,29.75-93.65,56.78-105.96,55.58,1.59-9.13,7.15-20.41,6.9-20.48-.23-.08,1.04-2.23-1.98-.16s-54.24,32.87-65.99,30.49c4.29-10.96,8.75-30.33,9.21-31.93.48-1.59-34.61,24.3-63.36,30.66-27.22,5.26-47.74,23.04-73.47,52.38Z"/>
        <path class="cls-2" d="m216.47,428.04c.8-1.19-43.37-46.23-72.34-45.6-3.88,0-1.98-1.75.48-2.86s28.03-16.36,28.43-17.15-106.73-81.94-105.77-82.57c68.92-40.16,127.05-16.94,205.81,39.38,5.08-9.11-.1-32.08.22-32.93,4.93-.61,17.8,7.56,31.28,20.3,14.32,13.53,29.33,32.22,36.3,51.08-26.79,47.33-35.53,165.28-25.55,214.7-26.91-20.76-26.2-68.14-49.39-91.64-15.88-14.93-31.5-32.14-64.43-33.62-4.98,0-4.55-2.01-1.38-5.18,3.17-3.18,14.67-13.49,16.29-13.89"/>
        <path class="cls-2" d="m782.67,428.04c-.79-1.18,43.37-46.23,72.34-45.6,3.89,0,1.98-1.75-.48-2.86s-28.02-16.36-28.42-17.15c-.41-.79,106.71-81.94,105.76-82.57-68.92-40.16-127.04-16.94-205.81,39.38-5.08-9.11.1-32.08-.21-32.93-4.93-.61-17.8,7.54-31.28,20.29-14.31,13.53-29.33,32.23-36.31,51.09,26.79,47.33,35.54,165.28,25.55,214.7,26.93-20.76,26.2-68.14,49.4-91.64,15.88-14.93,31.5-32.14,64.42-33.62,4.98,0,4.56-2.01,1.38-5.18-3.17-3.18-14.66-13.49-16.29-13.89"/>
        <path class="cls-2" d="m555.23,251.63c-5.38-36.09-6.71-74.75-5.48-81.75,2.51-4.64-9.1,4.3-16.68,4.29,16.23-46.16-30.27-136.79-21.41-171.01-1.42-7.54-96.25,158.3-82.7,269.4-9.15-3.13-15.95-17.11-21.6-18.11-1.4-.2-.62,15.95,11.89,36.52,3.77,6.17,8.57,12.73,14.71,19.38,17.19,18.65,42.12,69.14,56.42,101.22,5.25-.98,14.83-.83,20.68,0,4.16-13.14,25.53-67.58,44.88-92.58,8.19-10.6,9.14-21.75,5.9-33.95-2.67-10.06-4.85-21.6-6.61-33.41"/>
        <path class="cls-2" d="m555.23,251.65h0"/>
      </g>
    </g>
  </g>
  <g id="mask_col">
    <g>
      <path class="cls-4" d="m658.67,440.06c37.26,209.29-67.48,364.69-159.1,377.11-111.12-10.57-246.91-260.79-112.49-521.59,10.98.66,78.32,76.39,88.05,136.71,6.1-1.52,43.23-1.08,48.43.43,15.85-72.26,79.1-136.16,88.95-136.16,23.19,49.77,38.04,97.92,46.17,143.49Zm-159.93,175.5c118.72,0,156.71-54.97,146.55-102.78-.89-4.26-3.24-8.66-5.72-4.05-29.4,48.99-97.17,66.21-140.84,67.41-43.67-1.2-111.44-18.42-140.84-67.41-2.47-4.6-4.83-.2-5.73,4.05-10.15,47.81,27.84,102.78,146.57,102.78Zm138.32-129.55c15.92-68.09-19.47-150.98-34.41-151.24-14.93-.27-60.31,87.59-63.3,102.29-3,14.71,10.8,15.39,15.49,6.46s35.59-52.03,44.37-47.4c21.29,11.23,25.81,58.83,21.65,92.83-1.21,9.83,12.41,13.36,16.21-2.94Zm-15.26,148.49c2.33-2.93-2.65-7.92-5.7-4.92-17.8,23.71-7.06,63.74-36.83,113.75-16.08,25.46-41.09,38.45-79.62,13.45-.27-.18-.61-.19-.89-.03-45.1,26.18-64.77,14.94-86.32-28.49-20.68-41.66-4.55-50.67-27.48-95.92-3.79-7.32-10.92-2.43-7.59,1.52,5.69,7.38,6.74,6.71,12.02,29.92,5.27,23.23,2.37,55.42,33.35,92.19,30.21,35.85,62.83,13.04,75.46,5.89.59-.33,1.61-.45,2.21-.1,12.96,7.39,49.04,32.02,79.41-10.99,26.03-36.1,28.55-71.44,29.82-84.47,1.26-13.02,9.73-28.71,12.18-31.81Zm-121.83,110.51c3.94-9.66,28.97-25.25,28.97-35.76-.01-9.08-57.95-11.46-57.95,1.73.27,6.21,25.57,25.14,28.97,34.02,0,.13.05.1,0,0Zm-58.85-301.49c4.69,8.92,18.48,8.25,15.49-6.46-3-14.7-48.39-102.56-63.32-102.29-14.93.27-50.31,83.16-34.41,151.24,3.82,16.3,17.42,12.77,16.22,2.94-4.16-34,.35-81.6,21.63-92.83,8.79-4.63,39.68,38.47,44.38,47.4Z"/>
      <path class="cls-3" d="m645.3,512.78c10.16,47.81-27.83,102.78-146.55,102.78s-156.71-54.97-146.57-102.78c.9-4.26,3.26-8.66,5.73-4.05,29.4,48.99,97.17,66.21,140.84,67.41,43.67-1.2,111.44-18.42,140.84-67.41,2.47-4.6,4.83-.2,5.72,4.05Zm-5.12,16.99c.24-3.24-1.1-1.94-2.14-.47-39.88,59.46-112.05,58.25-138.59,58.25s-98.22,1.21-138.1-58.25c-1.04-1.47-2.39-2.77-2.14.47.52,6.95,21.07,77.62,140.76,77.62s139.69-70.68,140.21-77.62Z"/>
      <path class="cls-5" d="m638.04,529.31c1.04-1.47,2.38-2.77,2.14.47-.52,6.95-20.54,77.62-140.21,77.62s-140.24-70.68-140.76-77.62c-.25-3.24,1.1-1.94,2.14-.47,39.88,59.46,111.57,58.25,138.1,58.25s98.71,1.21,138.59-58.25Z"/>
      <path class="cls-3" d="m602.66,334.77c14.95.27,50.33,83.16,34.41,151.24-3.8,16.3-17.42,12.77-16.21,2.94,4.16-34-.36-81.6-21.65-92.83-8.78-4.63-39.68,38.47-44.37,47.4s-18.5,8.25-15.49-6.46c2.99-14.7,48.37-102.56,63.3-102.29Z"/>
      <path class="cls-1" d="m616.1,629.58c3.06-3,8.03,1.99,5.7,4.92-2.45,3.1-10.92,18.79-12.18,31.81-1.28,13.03-3.79,48.37-29.82,84.47-30.37,43.01-66.44,18.38-79.41,10.99-.6-.34-1.62-.23-2.21.1-12.63,7.15-45.25,29.96-75.46-5.89-30.98-36.78-28.08-68.97-33.35-92.19-5.28-23.21-6.33-22.54-12.02-29.92-3.32-3.95,3.8-8.83,7.59-1.52,22.94,45.24,6.81,54.26,27.48,95.92,21.55,43.43,41.22,54.68,86.32,28.49.28-.17.62-.15.89.03,38.53,25,63.54,12.01,79.62-13.45,29.77-50.01,19.03-90.04,36.83-113.75Z"/>
      <path class="cls-5" d="m528.94,709.26c0,10.5-25.04,26.1-28.97,35.76-3.4-8.89-28.71-27.82-28.97-34.02,0-13.19,57.93-10.81,57.95-1.73Zm-19.39.98c0-1.68-4.47-3.05-9.99-3.05s-9.99,1.36-9.99,3.05,4.47,3.05,9.99,3.05,9.99-1.36,9.99-3.05Z"/>
      <ellipse class="cls-4" cx="499.57" cy="710.24" rx="9.99" ry="3.05"/>
      <path class="cls-5" d="m499.97,745.02c.05.1,0,.13,0,0h0Z"/>
      <path class="cls-3" d="m456.61,437.06c2.99,14.71-10.8,15.39-15.49,6.46-4.71-8.92-35.59-52.03-44.38-47.4-21.29,11.23-25.79,58.83-21.63,92.83,1.2,9.83-12.41,13.36-16.22-2.94-15.9-68.09,19.48-150.98,34.41-151.24,14.93-.27,60.31,87.59,63.32,102.29Z"/>
    </g>
  </g>
</svg>