<?xml version="1.0" encoding="UTF-8"?>
<svg xmlns="http://www.w3.org/2000/svg" viewBox="0 0 999.15 852.93">
  <defs>
    <style>
      .cls-1 {
        fill: #fff;
      }

      .cls-2 {
        fill: #3a2747;
      }
    </style>
  </defs>
  <g id="tail_black">
    <g>
      <g>
        <path class="cls-1" d="m931.86,279.86c.96.63-106.17,81.78-105.76,82.57.4.79,25.96,16.05,28.42,17.15s4.37,2.86.48,2.86c-28.97-.63-73.13,44.42-72.34,45.6-9.04-5.6-30.58-16.69-34.7-16.37,12.07-6.04,39.71-29.22,40.98-34.62,1.27-5.4-43.52,5.4-49.23,2.54,6.99-9.53,49.36-67.65,55.05-72.73-12.72,0-84.91,48.91-90.31,55.58,3.49-15.56-7.88-48.28-9.66-55.58l-.23-.26c13.48-12.75,26.34-20.9,31.28-20.29.31.85-4.87,23.82.21,32.93,78.77-56.32,136.89-79.54,205.81-39.38Z"/>
        <path class="cls-1" d="m894.39,510.6c.24.07-5.32,11.35-6.9,20.48,12.3,1.2,38.61-25.83,105.96-55.58-51.67,117.2-195.55,196.03-194.97,196.61.58.57.69,2.22,17.31,13.33-14.74,1.19-29.77,3.06-44.55,5.34,6.32-9.52,55.11-70.17,56.41-72.46,1.38-2.43,7.94-9.53,0-8.26-7.94,1.27-82.63,26.68-86.9,27.1-4.26.43-3.36-1.29-1.82-3.11,1.53-1.83,69.71-46.27,71.19-48.02,1.48-1.74,8.37-7.2.27-6.34-8.73-.48-107.88,34.83-107.25,33.24,1.48-3.59,74.88-48.03,77.82-49.37,2.86-1.71,2.94-3.3-.33-2.46-1.97,1.13-61.21,24.73-81.82,30.96,25.73-29.34,46.25-47.12,73.47-52.38,28.75-6.36,63.83-32.24,63.36-30.66-.47,1.6-4.92,20.97-9.21,31.93,11.75,2.38,62.97-28.43,65.99-30.49s1.75.08,1.98.16Z"/>
        <path class="cls-1" d="m882.25,809.69c3.07-1.45,2.54-1.67,1.26-2.48-6.12-4.76-40.42-8.17-45.34-9.36-4.93-1.19-3.42-3.27.02-3.95,43.54-6.09,42.88-20,40.13-19.64-2.75.37-61.2-5.15-62.7-5.55-1.52-.4-2.23-.56-1.04-1.27,1.19-.72,12.15-5.56,15.33-7.23,3.17-1.67,4.59-3.81.4-6.06-10.81-4.86-64.37-13.34-70.54-23.16l-.09-.49c8.63-1.74,14.57-3.03,16.23-3.48,8.42-2.23,7.71-1.04,34.7,12.63,27,13.66,70.83,10.16,153.41-16.21-47.32,120.07-93.16,129.15-137.95,105.82,1.6,4.44,3.6,4.72,15.36,18.69-9.62,1.21-19.25,1.87-28.84,2.03-4.02-1.52-12.35-11.7-16.06-16-3.92-4.56-4.34-7.16-1.59-8.54s18.53-1.32,39.07-4.28c20.55-2.97,45.19-10.02,48.24-11.46Z"/>
        <path class="cls-2" d="m883.51,807.21c1.28.82,1.81,1.04-1.26,2.48-3.06,1.45-27.7,8.49-48.24,11.46-20.54,2.96-36.31,2.9-39.07,4.28s-2.33,3.98,1.59,8.54c3.71,4.3,12.03,14.48,16.06,16-105.69,1.9-205.84-54.82-217.05-64.72,6.67-5.4,30.02-31.46,31.92-37.83,18.09,4.57,97.26-9.89,132.23-16.93l.09.49c6.17,9.82,59.73,18.3,70.54,23.16,4.2,2.25,2.78,4.4-.4,6.06-3.18,1.67-14.15,6.51-15.33,7.23-1.19.71-.48.87,1.04,1.27,1.5.4,59.95,5.92,62.7,5.55,2.75-.36,3.42,13.55-40.13,19.64-3.44.69-4.96,2.76-.02,3.95,4.92,1.19,39.22,4.61,45.34,9.36Z"/>
        <path class="cls-2" d="m827.64,610.06c7.94-1.27,1.38,5.83,0,8.26-1.29,2.3-50.09,62.95-56.41,72.46-60.86,9.45-117.22,26.14-129.35,32.27-.45.23-.94-.26-.69-.71,7.87-14.26,39.94-80.77,39.54-109.01,6.37-7.66,12.35-14.76,18.06-21.28,20.61-6.23,79.85-29.83,81.82-30.96,3.27-.84,3.18.75.33,2.46-2.94,1.34-76.34,45.78-77.82,49.37-.63,1.6,98.52-33.71,107.25-33.24,8.1-.85,1.21,4.61-.27,6.34-1.48,1.75-69.67,46.19-71.19,48.02-1.54,1.82-2.44,3.55,1.82,3.11,4.27-.42,78.96-25.83,86.9-27.1Z"/>
        <path class="cls-2" d="m798.99,441.95c3.18,3.17,3.6,5.18-1.38,5.18-32.92,1.48-48.53,18.69-64.42,33.62-23.19,23.5-22.47,70.88-49.4,91.64,9.99-49.42,1.24-167.36-25.55-214.7,6.99-18.86,22.01-37.56,36.31-51.09l.23.26c1.77,7.3,13.14,40.02,9.66,55.58,5.4-6.67,77.58-55.58,90.31-55.58-5.69,5.08-48.07,63.2-55.05,72.73,5.71,2.86,50.51-7.94,49.23-2.54-1.27,5.4-28.91,28.58-40.98,34.62,4.13-.31,25.67,10.78,34.7,16.37.01.01.02.01.03.02,1.63.4,13.12,10.71,16.29,13.89Z"/>
        <path class="cls-2" d="m561.85,285.06c3.24,12.2,2.29,23.35-5.9,33.95-19.36,25-40.72,79.44-44.88,92.58-5.84-.83-15.43-.98-20.68,0-14.3-32.08-39.23-82.57-56.42-101.22-6.13-6.65-10.94-13.21-14.71-19.38,13.29,7.8,35.42,20.07,37.47,20.97,2.8,1.21,4.83.58,3.48-1.39-3.49-5.07-21.94-66.75-18.83-66.83,3.1-.07,25.53,18.3,26.2,19.05.68.77,4.63,2.79,2.97-2.18-13.43-73.99,5.2-110.91,5.85-108.57.65,2.33,26.24,81.87,28.22,85.94s4.56,2.37,5.07-.3,2.73-26.89,3.28-30.11c.55-3.23,2.31-22.17,4.47-17.88,3.13,7.66,25.74,46.83,37.79,61.95h0c1.76,11.82,3.94,23.36,6.61,33.42Z"/>
        <path class="cls-1" d="m533.08,174.18c7.58.01,19.18-8.93,16.68-4.29-1.22,7,.1,45.65,5.48,81.75-12.06-15.11-34.67-54.28-37.79-61.95-2.16-4.29-3.92,14.65-4.47,17.88-.55,3.22-2.76,27.44-3.28,30.11s-3.09,4.37-5.07.3-27.57-83.61-28.22-85.94c-.65-2.34-19.29,34.58-5.85,108.57,1.66,4.97-2.3,2.95-2.97,2.18-.68-.76-23.1-19.12-26.2-19.05-3.1.08,15.35,61.76,18.83,66.83,1.35,1.97-.68,2.6-3.48,1.39-2.05-.9-24.17-13.17-37.47-20.97-12.51-20.57-13.29-36.72-11.89-36.52,5.64,1,12.44,14.98,21.6,18.11C415.41,161.47,510.24-4.38,511.67,3.16c-8.86,34.23,37.64,124.86,21.41,171.01Z"/>
        <path class="cls-2" d="m371.68,747.42c1.9,6.37,25.25,32.43,31.92,37.83-11.22,9.9-111.37,66.62-217.04,64.72,4.02-1.53,12.34-11.7,16.05-16,3.92-4.56,4.34-7.16,1.59-8.54s-18.53-1.32-39.07-4.28c-20.54-2.97-45.19-10.02-48.24-11.46s-2.54-1.67-1.25-2.48c6.11-4.76,40.42-8.17,45.34-9.36,4.92-1.19,3.42-3.27-.03-3.95-43.53-6.09-42.88-20-40.12-19.64,2.75.37,61.19-5.15,62.7-5.55,1.5-.4,2.22-.56,1.03-1.27-1.19-.72-12.15-5.56-15.32-7.23s-4.61-3.81-.4-6.06c10.8-4.86,64.37-13.34,70.53-23.16l.09-.49c34.97,7.04,114.14,21.5,132.23,16.93Z"/>
        <path class="cls-2" d="m357.93,722.34c.26.45-.22.94-.69.71-12.13-6.12-68.48-22.82-129.34-32.26-6.3-9.48-55.11-70.18-56.42-72.48-1.38-2.43-7.93-9.53,0-8.26,7.94,1.27,82.64,26.68,86.9,27.1,4.26.43,3.36-1.29,1.83-3.11-1.54-1.83-69.72-46.27-71.2-48.02-1.48-1.74-8.36-7.2-.27-6.34,8.73-.48,107.89,34.83,107.25,33.24-1.48-3.59-74.87-48.03-77.8-49.37-2.86-1.71-2.94-3.3.31-2.46,1.97,1.13,61.22,24.73,81.83,30.96,5.71,6.52,11.7,13.62,18.06,21.28-.41,28.24,31.67,94.75,39.53,109.01Z"/>
        <path class="cls-2" d="m340.89,357.68c-26.79,47.33-35.53,165.28-25.55,214.7-26.91-20.76-26.2-68.14-49.39-91.64-15.88-14.93-31.5-32.14-64.43-33.62-4.98,0-4.55-2.01-1.38-5.18,3.17-3.18,14.67-13.49,16.29-13.89.01-.01.02-.01.03-.02,9.04-5.6,30.58-16.69,34.7-16.37-12.07-6.04-39.7-29.22-40.97-34.62s43.51,5.4,49.22,2.54c-6.99-9.53-49.36-67.65-55.05-72.73,12.73,0,84.92,48.91,90.32,55.58-3.5-15.56,7.87-48.28,9.66-55.58l.23-.24c14.32,13.53,29.33,32.22,36.3,51.08Z"/>
        <path class="cls-1" d="m304.58,306.61l-.23.24c-1.78,7.3-13.15,40.02-9.66,55.58-5.4-6.67-77.58-55.58-90.32-55.58,5.69,5.08,48.07,63.2,55.05,72.73-5.71,2.86-50.49-7.94-49.22-2.54s28.9,28.58,40.97,34.62c-4.13-.31-25.67,10.78-34.7,16.37.8-1.19-43.37-46.23-72.34-45.6-3.88,0-1.98-1.75.48-2.86s28.03-16.36,28.43-17.15-106.73-81.94-105.77-82.57c68.92-40.16,127.05-16.94,205.81,39.38,5.08-9.11-.1-32.08.22-32.93,4.93-.61,17.8,7.56,31.28,20.3Z"/>
        <path class="cls-1" d="m296,612.92c.64,1.6-98.52-33.71-107.25-33.24-8.09-.85-1.21,4.61.27,6.34,1.48,1.75,69.67,46.19,71.2,48.02,1.53,1.82,2.43,3.55-1.83,3.11-4.26-.42-78.96-25.83-86.9-27.1-7.93-1.27-1.38,5.83,0,8.26,1.31,2.3,50.12,62.99,56.42,72.48-14.78-2.3-29.82-4.16-44.56-5.35,16.63-11.11,16.73-12.76,17.32-13.33.58-.58-143.31-79.41-194.97-196.61,67.33,29.75,93.64,56.78,105.96,55.58-1.6-9.13-7.15-20.41-6.92-20.48.24-.08-1.03-2.23,1.98-.16,3.02,2.06,54.24,32.87,65.99,30.49-4.29-10.96-8.73-30.33-9.21-31.93-.48-1.59,34.62,24.3,63.37,30.66,27.22,5.26,47.74,23.04,73.47,52.38-20.61-6.23-79.86-29.83-81.83-30.96-3.25-.84-3.17.75-.31,2.46,2.94,1.34,76.32,45.78,77.8,49.37Z"/>
        <path class="cls-1" d="m239.45,730.49l-.09.49c-6.16,9.82-59.73,18.3-70.53,23.16-4.21,2.25-2.78,4.4.4,6.06s14.13,6.51,15.32,7.23c1.19.71.48.87-1.03,1.27-1.52.4-59.95,5.92-62.7,5.55-2.76-.36-3.42,13.55,40.12,19.64,3.45.69,4.96,2.76.03,3.95-4.92,1.19-39.23,4.61-45.34,9.36-1.29.82-1.81,1.04,1.25,2.48s27.71,8.49,48.24,11.46c20.54,2.96,36.31,2.9,39.07,4.28s2.33,3.98-1.59,8.54c-3.71,4.3-12.02,14.47-16.05,16-9.59-.16-19.22-.82-28.84-2.03,11.74-13.97,13.76-14.25,15.35-18.69-44.78,23.33-90.63,14.25-137.95-105.82,82.59,26.37,126.41,29.86,153.42,16.21,27-13.67,26.27-14.86,34.69-12.63,1.67.44,7.6,1.74,16.23,3.48Z"/>
      </g>
      <g>
        <path class="cls-2" d="m191.73,852.93c-1.74,0-3.48-.02-5.22-.05-9.88-.17-19.69-.86-29.15-2.05l-5.31-.67,3.45-4.1c3.45-4.11,6.09-7.07,8.11-9.27-17.29,6.81-33.04,7.42-47.87,1.88-30.25-11.3-57.51-48.64-83.33-114.17l-2.25-5.71,5.85,1.87c78.89,25.19,124.12,30.09,151.22,16.39,5.16-2.61,9.34-4.78,12.69-6.53,14.63-7.61,16.17-8.41,24.06-6.32,1.5.4,7.17,1.64,16.06,3.44h0c40.94,8.25,114.59,21.09,130.94,16.96l2.71-.68.8,2.68c1.59,5.34,24.19,30.92,30.96,36.4l2.68,2.17-2.59,2.28c-6.28,5.54-34.43,22.18-73.99,37.32-33.9,12.98-85.25,28.17-139.82,28.17Zm-28.23-7.26c7.56.79,15.31,1.25,23.11,1.38,96.5,1.74,192.11-47.34,212.46-61.96-7.88-7.53-24.37-25.93-29.07-34.39-24.87,3.58-113.13-13.74-131.12-17.36h0c-7.85-1.58-14.44-3-16.41-3.52q-5.71-1.51-19.88,5.85c-3.37,1.75-7.57,3.93-12.75,6.56-27.89,14.1-72.85,9.89-149.74-14.17,24.48,60.36,49.92,94.78,77.67,105.14,16.44,6.14,33.59,4.06,53.95-6.55l6.59-3.44-2.5,7c-1.14,3.19-2.5,4.65-5.79,8.2-1.54,1.66-3.66,3.94-6.53,7.24Z"/>
        <path class="cls-2" d="m807.42,852.93c-54.57,0-105.92-15.19-139.82-28.17-39.56-15.15-67.71-31.78-73.99-37.32l-2.59-2.28,2.68-2.17c6.77-5.48,29.36-31.06,30.96-36.4l.8-2.68,2.71.68c16.34,4.13,90-8.72,130.94-16.96,8.9-1.79,14.56-3.04,16.06-3.43,7.91-2.09,9.44-1.29,24.11,6.33,3.35,1.74,7.52,3.91,12.66,6.51,27.09,13.7,72.31,8.8,151.2-16.39l5.85-1.87-2.25,5.71c-25.83,65.53-53.08,102.87-83.32,114.17-14.82,5.54-30.56,4.94-47.86-1.87,2.01,2.2,4.66,5.16,8.11,9.27l3.45,4.1-5.32.67c-9.47,1.19-19.27,1.88-29.15,2.05-1.74.03-3.49.05-5.22.05Zm-207.35-67.84c20.36,14.62,115.94,63.69,212.47,61.96,7.8-.13,15.55-.6,23.11-1.38-2.87-3.3-4.98-5.58-6.52-7.24-3.29-3.55-4.65-5.01-5.8-8.2l-2.52-7.02,6.61,3.45c20.37,10.61,37.51,12.69,53.95,6.55,27.74-10.37,53.18-44.78,77.66-105.14-76.88,24.06-121.84,28.28-149.73,14.17-5.17-2.62-9.36-4.79-12.72-6.54q-14.2-7.38-19.92-5.87c-1.96.52-8.55,1.93-16.4,3.52h0c-16.31,3.29-90.45,17.84-122.66,17.85-3.3,0-6.15-.15-8.47-.49-4.7,8.45-21.19,26.86-29.07,34.39Z"/>
        <path class="cls-2" d="m357.5,726.02c-.53,0-1.06-.12-1.55-.37-11.71-5.91-67.67-22.56-128.48-31.98-15.52-2.41-30.44-4.21-44.35-5.33l-8.35-.67,6.97-4.66c5.05-3.38,11.09-7.56,14.36-10.37-.15-.09-.31-.19-.46-.28-11.76-7.17-47.54-29.01-86.94-62.79-50.21-43.05-85.76-87.76-105.65-132.9l-3.03-6.88,6.88,3.04c36.66,16.2,61.52,31.78,77.97,42.09,10.41,6.52,18.03,11.3,23.06,12.79-1.49-5.51-3.91-11.23-5.07-13.97-.74-1.75-1.1-2.59-1.03-3.38-.19-1.85.75-2.79,1.36-3.2,1.99-1.33,4.08.1,5.2.87,5.89,4.02,45.64,26.98,60.13,29.84-3.03-8.88-5.86-20.3-7.18-25.6-.32-1.29-.53-2.16-.62-2.44l-.58-1.93,1.61-1.28c1.69-1.29,3.38-.29,4.86.59.97.58,2.35,1.44,4.07,2.52,10.69,6.71,35.74,22.41,56.83,27.07,28.35,5.48,49.74,24.46,75.03,53.31h0c5.05,5.76,10.63,12.34,18.11,21.34l.69.83-.02,1.08c-.39,27.04,30.42,91.68,39.17,107.56.73,1.3.53,2.93-.51,4.03-.67.7-1.56,1.07-2.48,1.07Zm-2.12-2.3s.02.03.02.04c0-.01-.02-.03-.02-.04Zm-163.66-40.47c11.68,1.12,23.97,2.69,36.65,4.66,53.92,8.36,104.31,22.46,123.9,29.87-10.32-20.32-36.45-76.16-36.77-103.4-7.11-8.55-12.48-14.87-17.34-20.41h0c-24.48-27.92-45.04-46.27-71.83-51.44-21.87-4.83-47.14-20.57-58.31-27.58,1.77,7.01,4.63,17.78,7.43,24.92l1.27,3.23-3.4.69c-.56.11-1.18.17-1.86.17-13.18,0-48.37-20.29-61.41-28.1,1.66,4.17,3.62,9.68,4.5,14.72l.54,3.1-3.13.3c-6.64.66-15-4.6-30.19-14.12-15.22-9.54-37.72-23.64-70.16-38.51,42.07,88.07,134.71,154.09,187.07,186.03,4.55,2.77,4.72,2.88,4.9,4.38l.17,1.41-.93.93c-.74.99-2.28,2.95-11.09,9.16Zm11.05-9.11l-.03.03s.02-.02.03-.03Z"/>
        <path class="cls-2" d="m641.65,726.03c-.91,0-1.8-.37-2.47-1.06-1.06-1.1-1.26-2.73-.51-4.06,8.74-15.83,39.55-80.41,39.17-107.53v-1.08s.67-.83.67-.83c7.47-8.99,13.06-15.58,18.11-21.34h0c25.29-28.85,46.68-47.83,75.11-53.32,21.01-4.65,46.05-20.35,56.74-27.06,1.72-1.08,3.1-1.94,4.07-2.52,1.49-.88,3.17-1.88,4.86-.6l1.61,1.23-.57,1.99c-.07.24-.26,1.03-.55,2.2-1.21,4.89-4.14,16.75-7.24,25.83,14.49-2.86,54.24-25.82,60.14-29.85,1.05-.71,3.23-2.2,5.22-.86.63.42,1.58,1.39,1.35,3.25.04.78-.32,1.64-1.06,3.37-1.25,2.96-3.6,8.51-5.05,13.92,5.03-1.49,12.64-6.26,23.04-12.78,16.45-10.31,41.31-25.9,78-42.1l6.88-3.04-3.03,6.88c-19.9,45.14-55.45,89.85-105.66,132.9-39.4,33.78-75.18,55.61-86.93,62.79-.16.09-.31.19-.46.28,3.27,2.81,9.3,7,14.35,10.37l6.96,4.66-8.35.67c-13.83,1.12-28.75,2.9-44.34,5.32-60.83,9.44-116.78,26.08-128.48,31.99-.5.25-1.03.38-1.56.38Zm2.13-2.32s-.01.03-.02.04c0-.01.02-.03.02-.04Zm-3.19-3.26s-.02,0-.03.01c0,0,.02,0,.03-.01Zm43.07-106.06c-.36,26.05-25.41,81.17-36.76,103.39,19.63-7.42,69.98-21.51,123.89-29.87,12.73-1.97,25.01-3.53,36.64-4.65-8.94-6.3-10.38-8.22-11.06-9.12,0,0,0,0,.02.01l-.97-.95.17-1.43c.18-1.5.36-1.6,4.9-4.38,52.35-31.95,144.99-97.97,187.07-186.03-32.46,14.88-54.95,28.98-70.18,38.53-15.18,9.51-23.54,14.76-30.16,14.11l-3.13-.3.54-3.1c.87-5.04,2.84-10.56,4.5-14.73-13.7,8.21-51.94,30.24-63.28,27.94l-3.4-.69,1.27-3.23c2.78-7.1,5.68-18,7.43-24.93-11.17,7.01-36.44,22.75-58.23,27.56-26.87,5.19-47.43,23.54-71.9,51.46h0c-4.87,5.55-10.24,11.87-17.34,20.41Z"/>
        <path class="cls-2" d="m319.74,579.46l-6.18-4.77c-15.06-11.61-21.79-30.96-28.3-49.68-5.67-16.3-11.03-31.7-21.34-42.18-1.15-1.08-2.3-2.18-3.46-3.28-14.56-13.85-29.61-28.17-59-29.51-1.46,0-5.11-.04-6.3-2.93-1.26-3.04,1.68-5.97,2.93-7.23.1-.1,8.9-8.53,14.25-12.57-7.99-8.87-43.71-41.97-67.58-41.97-.19,0-.37,0-.55,0h0c-3,0-4.7-.99-5.12-2.94-.46-2.14,1-3.99,4.34-5.49,1.79-.81,18.12-10.48,24.87-14.75-7.16-5.75-27.49-21.38-45.77-35.44-13.84-10.64-28.15-21.65-38.94-30.03q-19.29-14.99-19.22-16.94l.06-1.5,1.4-.92c69.9-40.73,128.7-17.39,205.89,37.33,1.74-7.38-.12-19.71-.89-24.8-.47-3.14-.56-3.71-.22-4.6l.63-1.64,1.74-.21c7.41-.92,22.75,10.79,33.63,21.08,17.32,16.36,30.82,35.38,37.03,52.18l.47,1.27-.67,1.18c-11.91,21.05-21.46,59.48-26.2,105.43-4.31,41.84-3.94,82.94.97,107.26l1.55,7.66Zm-117.75-135.23c31.4,1.52,47.91,17.23,62.48,31.1,1.16,1.1,2.32,2.2,3.47,3.29l.08.08c11.27,11.42,17.1,28.19,22.74,44.4,5.22,15.02,10.6,30.46,20.26,41.28-7.39-52.38.87-159.78,26.65-206.93-6.11-15.69-18.84-33.37-35.1-48.73-11.54-10.92-20.94-16.94-25.88-18.86,1.69,11.43,2.8,23.86-1.07,30.79l-1.59,2.85-2.65-1.9c-75.45-53.95-132.54-78.08-199.13-41.23,8.31,6.74,33.2,25.88,53.81,41.73,12.75,9.8,24.79,19.06,33.87,26.11,4.88,3.79,8.45,6.58,10.92,8.55,4.9,3.91,5.92,4.72,4.8,6.97-.45.91-.66,1.32-14.55,9.66-2.89,1.73-7.59,4.52-11.07,6.53,29.38,4.33,66.78,42.52,68.92,46.44.87,1.6.24,2.85-.07,3.31l-2.46-1.67.71,2.89c.22-.05.34-.12.35-.12-1.77.91-11.9,9.85-15.27,13.23-.08.08-.15.15-.22.22Z"/>
        <path class="cls-2" d="m679.4,579.46l1.55-7.66c4.92-24.31,5.29-65.41.98-107.25-4.74-45.95-14.29-84.38-26.21-105.43l-.67-1.18.47-1.27c6.22-16.8,19.72-35.82,37.04-52.19,10.88-10.29,26.22-21.99,33.63-21.07l1.76.22.62,1.67c.33.88.24,1.44-.23,4.52-.78,5.1-2.66,17.46-.91,24.86,77.19-54.72,136-78.06,205.89-37.33l.14.08,1.25.83.06,1.51q.07,1.95-19.15,16.89c-10.76,8.36-25.04,19.34-38.84,29.96-18.35,14.11-38.75,29.8-45.92,35.57,6.75,4.27,23.07,13.95,24.86,14.75,3.34,1.51,4.81,3.35,4.35,5.49-.42,1.95-2.12,2.94-5.07,2.94-.18,0-.37,0-.55,0-23.87,0-59.63,33.09-67.64,41.97,5.35,4.05,14.14,12.46,14.25,12.57,1.25,1.24,4.19,4.17,2.93,7.22-1.19,2.89-4.85,2.93-6.31,2.93-29.38,1.34-44.43,15.66-58.99,29.51-1.16,1.1-2.31,2.19-3.46,3.28-10.32,10.48-15.68,25.88-21.35,42.18-6.51,18.71-13.24,38.06-28.3,49.68l-6.19,4.77Zm-17.94-222.01c25.8,47.17,34.05,154.56,26.65,206.93,9.67-10.82,15.04-26.26,20.27-41.28,5.64-16.21,11.47-32.98,22.75-44.4l.08-.08c1.16-1.09,2.31-2.19,3.47-3.29,14.58-13.87,31.09-29.58,62.47-31.1-.07-.07-.14-.14-.21-.22-3.39-3.4-13.5-12.34-15.27-13.24,0,0,.13.07.35.12l.7-2.89-2.47,1.66c-.31-.46-.94-1.7-.06-3.3,2.14-3.92,39.54-42.07,68.93-46.44-3.48-2.01-8.19-4.8-11.08-6.54-13.88-8.33-14.09-8.75-14.54-9.65-1.15-2.23-.12-3.05,4.81-6.98,2.47-1.97,6.06-4.78,10.96-8.58,9.11-7.07,21.19-16.36,33.97-26.19,20.54-15.8,45.35-34.88,53.64-41.61-66.58-36.85-123.68-12.72-199.13,41.23l-2.65,1.9-1.59-2.85c-3.87-6.94-2.76-19.35-1.06-30.79-4.95,1.92-14.34,7.94-25.88,18.84-16.26,15.37-28.99,33.06-35.11,48.74Zm194.34,22.02h0,0Z"/>
        <path class="cls-2" d="m488.66,414.87l-.94-2.1c-15.84-35.54-39.98-83.16-55.9-100.43-5.76-6.24-10.82-12.92-15.05-19.84-11.83-19.45-14.18-36.31-12.06-39.51.69-1.04,1.86-1.58,3.07-1.42l.1.02c3.62.64,6.75,4.2,10.38,8.32,2.24,2.54,4.66,5.29,7.21,7.32-5.01-56.53,15.99-123.73,34.87-170.86,12.62-31.5,25.02-55.84,31.3-67.55,4.29-8.01,8.28-14.94,11.54-20.06,4.93-7.74,6.33-8.49,7.76-8.71,1.72-.26,3.26.85,3.59,2.59l.12.64-.16.63c-3.73,14.41,3.19,40.61,10.52,68.35,8.91,33.74,18.95,71.72,12.22,98.22,2.33-.75,4.79-1.9,6.8-2.84,3.9-1.82,6.25-2.93,8.11-.96.72.76,1.34,2.07.43,4.11-.95,7.06.13,44.05,5.55,80.44l-5.77.86c-4.8-32.24-6.42-66.8-5.79-79.18-.02,0-.04.02-.05.02-3.78,1.77-8.95,4.19-13.41,4.19h-4.13s1.36-3.88,1.36-3.88c8.75-24.89-1.72-64.52-10.95-99.48-6.36-24.08-12.02-45.49-11.76-61.2-20.37,32.38-87.23,165.61-75.75,259.68l.56,4.61-4.4-1.5c-5.65-1.93-10.16-7.05-14.14-11.57-1.23-1.39-2.6-2.95-3.87-4.19.82,5.75,3.82,16.87,11.74,29.9,4.02,6.59,8.86,12.96,14.36,18.92,20.22,21.93,48.52,83.27,56.03,99.99,5.02-.58,11.81-.47,16.9.03,5.43-15.88,25.66-66.73,44.6-91.19,6.97-9.03,8.68-19.01,5.39-31.41-2.5-9.42-4.75-20.76-6.68-33.73l5.77-.86c1.9,12.75,4.1,23.89,6.55,33.09,3.8,14.3,1.76,25.89-6.41,36.48-19.23,24.83-40.67,79.86-44.41,91.68l-.75,2.35-2.44-.35c-5.33-.76-14.75-.95-19.73-.02l-2.26.42Z"/>
        <polygon class="cls-2" points="552.32 251.65 552.32 251.63 558.15 251.63 552.32 251.65"/>
      </g>
    </g>
  </g>
  <g id="Layer_8" data-name="Layer 8">
    <g>
      <g>
        <path class="cls-1" d="m658.67,440.06c37.26,209.29-67.48,364.69-159.1,377.11-111.12-10.57-246.91-260.79-112.49-521.59,10.98.66,78.32,76.39,88.05,136.71,6.1-1.52,43.23-1.08,48.43.43,15.85-72.26,79.1-136.16,88.95-136.16,23.19,49.77,38.04,97.92,46.17,143.49Zm-159.93,175.5c118.72,0,156.71-54.97,146.55-102.78-.89-4.26-3.24-8.66-5.72-4.05-29.4,48.99-97.17,66.21-140.84,67.41-43.67-1.2-111.44-18.42-140.84-67.41-2.47-4.6-4.83-.2-5.73,4.05-10.15,47.81,27.84,102.78,146.57,102.78Zm138.32-129.55c15.92-68.09-19.47-150.98-34.41-151.24-14.93-.27-60.31,87.59-63.3,102.29-3,14.71,10.8,15.39,15.49,6.46s35.59-52.03,44.37-47.4c21.29,11.23,25.81,58.83,21.65,92.83-1.21,9.83,12.41,13.36,16.21-2.94Zm-15.26,148.49c2.33-2.93-2.65-7.92-5.7-4.92-17.8,23.71-7.06,63.74-36.83,113.75-16.08,25.46-41.09,38.45-79.62,13.45-.27-.18-.61-.19-.89-.03-45.1,26.18-64.77,14.94-86.32-28.49-20.68-41.66-4.55-50.67-27.48-95.92-3.79-7.32-10.92-2.43-7.59,1.52,5.69,7.38,6.74,6.71,12.02,29.92,5.27,23.23,2.37,55.42,33.35,92.19,30.21,35.85,62.83,13.04,75.46,5.89.59-.33,1.61-.45,2.21-.1,12.96,7.39,49.04,32.02,79.41-10.99,26.03-36.1,28.55-71.44,29.82-84.47,1.26-13.02,9.73-28.71,12.18-31.81Zm-121.83,110.51c3.94-9.66,28.97-25.25,28.97-35.76-.01-9.08-57.95-11.46-57.95,1.73.27,6.21,25.57,25.14,28.97,34.02,0,.13.05.1,0,0Zm-58.85-301.49c4.69,8.92,18.48,8.25,15.49-6.46-3-14.7-48.39-102.56-63.32-102.29-14.93.27-50.31,83.16-34.41,151.24,3.82,16.3,17.42,12.77,16.22,2.94-4.16-34,.35-81.6,21.63-92.83,8.79-4.63,39.68,38.47,44.38,47.4Z"/>
        <path class="cls-2" d="m645.3,512.78c10.16,47.81-27.83,102.78-146.55,102.78s-156.71-54.97-146.57-102.78c.9-4.26,3.26-8.66,5.73-4.05,29.4,48.99,97.17,66.21,140.84,67.41,43.67-1.2,111.44-18.42,140.84-67.41,2.47-4.6,4.83-.2,5.72,4.05Zm-5.12,16.99c.24-3.24-1.1-1.94-2.14-.47-39.88,59.46-112.05,58.25-138.59,58.25s-98.22,1.21-138.1-58.25c-1.04-1.47-2.39-2.77-2.14.47.52,6.95,21.07,77.62,140.76,77.62s139.69-70.68,140.21-77.62Z"/>
        <path class="cls-1" d="m638.04,529.31c1.04-1.47,2.38-2.77,2.14.47-.52,6.95-20.54,77.62-140.21,77.62s-140.24-70.68-140.76-77.62c-.25-3.24,1.1-1.94,2.14-.47,39.88,59.46,111.57,58.25,138.1,58.25s98.71,1.21,138.59-58.25Z"/>
        <path class="cls-2" d="m602.66,334.77c14.95.27,50.33,83.16,34.41,151.24-3.8,16.3-17.42,12.77-16.21,2.94,4.16-34-.36-81.6-21.65-92.83-8.78-4.63-39.68,38.47-44.37,47.4s-18.5,8.25-15.49-6.46c2.99-14.7,48.37-102.56,63.3-102.29Z"/>
        <path class="cls-2" d="m616.1,629.58c3.06-3,8.03,1.99,5.7,4.92-2.45,3.1-10.92,18.79-12.18,31.81-1.28,13.03-3.79,48.37-29.82,84.47-30.37,43.01-66.44,18.38-79.41,10.99-.6-.34-1.62-.23-2.21.1-12.63,7.15-45.25,29.96-75.46-5.89-30.98-36.78-28.08-68.97-33.35-92.19-5.28-23.21-6.33-22.54-12.02-29.92-3.32-3.95,3.8-8.83,7.59-1.52,22.94,45.24,6.81,54.26,27.48,95.92,21.55,43.43,41.22,54.68,86.32,28.49.28-.17.62-.15.89.03,38.53,25,63.54,12.01,79.62-13.45,29.77-50.01,19.03-90.04,36.83-113.75Z"/>
        <path class="cls-2" d="m528.94,709.26c0,10.5-25.04,26.1-28.97,35.76-3.4-8.89-28.71-27.82-28.97-34.02,0-13.19,57.93-10.81,57.95-1.73Zm-19.39.98c0-1.68-4.47-3.05-9.99-3.05s-9.99,1.36-9.99,3.05,4.47,3.05,9.99,3.05,9.99-1.36,9.99-3.05Z"/>
        <ellipse class="cls-1" cx="499.57" cy="710.24" rx="9.99" ry="3.05"/>
        <path class="cls-2" d="m499.97,745.02c.05.1,0,.13,0,0h0Z"/>
        <path class="cls-2" d="m456.61,437.06c2.99,14.71-10.8,15.39-15.49,6.46-4.71-8.92-35.59-52.03-44.38-47.4-21.29,11.23-25.79,58.83-21.63,92.83,1.2,9.83-12.41,13.36-16.22-2.94-15.9-68.09,19.48-150.98,34.41-151.24,14.93-.27,60.31,87.59,63.32,102.29Z"/>
      </g>
      <path class="cls-2" d="m499.62,819.69l-.29-.03c-43.59-4.15-89.65-43.29-123.2-104.7-20.68-37.85-45.7-100.98-47.45-186.74-1.62-79.66,17.28-158.32,56.18-233.78l.75-1.45,1.63.1c7.85.47,29.73,24.27,46.36,47,13.67,18.69,37.2,54.78,43.58,89.38,9.47-.97,35.22-.73,44.46.4,9.53-40.77,33.22-76.17,46.65-93.83,17.61-23.14,37.44-41.97,44.22-41.97h1.59l.67,1.44c22.22,47.68,37.81,96.17,46.36,144.11h0c10.92,61.35,10.38,120.94-1.62,177.1-10.57,49.47-29.94,94.54-56.02,130.31-30.11,41.3-67.86,67.77-103.59,72.61l-.29.04Zm-111.27-521.1c-83.32,163.2-58.77,320.74-7.83,413.98,16.08,29.44,35.67,54.43,56.64,72.26,20.6,17.52,42.16,27.83,62.36,29.83,34.3-4.77,70.71-30.47,99.94-70.57,55.76-76.49,76.97-190,56.76-303.59h0c-8.36-46.89-23.53-94.31-45.1-140.99-5.46,2.58-21.33,16.5-39,39.77-13.39,17.63-37.19,53.29-46.12,93.99l-.57,2.61-2.57-.75c-5.03-1.47-41.58-1.78-47.12-.41l-2.64.66-.43-2.68c-5.53-34.29-29.38-70.89-43.1-89.65-18.94-25.9-35.6-41.51-41.21-44.45Z"/>
    </g>
  </g>
</svg>