<?xml version="1.0" encoding="UTF-8"?>
<svg id="Layer_1" data-name="Layer 1" xmlns="http://www.w3.org/2000/svg" viewBox="0 0 57.61 42">
  <defs>
    <style>
      .cls-1 {
        fill: #fa69a1;
      }
    </style>
  </defs>
  <path class="cls-1" d="m.83,10h52.95c.35,0,.66-.22.78-.55l3-8.35C57.75.57,57.35,0,56.78,0H.83C.37,0,0,.37,0,.83v8.35C0,9.63.37,10,.83,10Z"/>
  <path class="cls-1" d="m.83,26h46.64c.34,0,.65-.21.77-.54l3.13-8.35c.2-.54-.2-1.12-.77-1.12H.83c-.46,0-.83.37-.83.83v8.35c0,.46.37.83.83.83Z"/>
  <path class="cls-1" d="m.83,42h40.57c.34,0,.65-.21.77-.53l3.16-8.35c.2-.54-.2-1.12-.77-1.12H.83c-.46,0-.83.37-.83.83v8.35c0,.46.37.83.83.83Z"/>
</svg>