<?xml version="1.0" encoding="UTF-8"?>
<svg id="Layer_2" data-name="Layer 2" xmlns="http://www.w3.org/2000/svg" viewBox="0 0 57.61 42">
  <defs>
    <style>
      .cls-1 {
        fill: #fa69a1;
      }
    </style>
  </defs>
  <path class="cls-1" d="m53.28,42h-10.15c-.25,0-.49-.1-.66-.28L3.67,1.55C3.11.97,3.53,0,4.33,0h9.69c.25,0,.48.1.66.28l39.25,40.17c.57.58.16,1.56-.66,1.56Z"/>
  <path class="cls-1" d="m4.33,42h10.15c.25,0,.49-.1.66-.28L53.93,1.55C54.5.97,54.08,0,53.28,0h-9.69c-.25,0-.48.1-.66.28L3.68,40.44c-.57.58-.16,1.56.66,1.56Z"/>
</svg>