<?xml version="1.0" encoding="UTF-8"?>
<svg xmlns="http://www.w3.org/2000/svg" viewBox="0 0 241.72 351.62">
  <defs>
    <style>
      .cls-1 {
        fill: #fff;
      }

      .cls-2 {
        fill: #e7e6e5;
      }

      .cls-3 {
        fill: #1a62b0;
      }

      .cls-4 {
        fill: #fbb5cf;
      }

      .cls-5 {
        fill: #399dd8;
      }
    </style>
  </defs>
  <g id="Layer_3" data-name="Layer 3">
    <g>
      <g>
        <polygon class="cls-3" points="220.44 324.99 120.86 351.62 21.27 324.99 0 78.6 241.72 78.6 220.44 324.99"/>
        <polygon class="cls-5" points="200.36 309.5 120.86 331.18 120.86 99.05 219.14 99.05 200.36 309.5"/>
      </g>
      <g>
        <polygon class="cls-1" points="120.62 129.45 195.96 129.45 182.43 282.64 120.62 300.77 120.62 268.86 154.35 259.92 158.29 221.11 120.62 220.6 120.62 189.96 160.22 190.22 163.03 159.83 120.62 159.07 120.62 129.45"/>
        <polygon class="cls-2" points="120.62 129.45 44.81 129.45 47.37 159.07 120.62 159.07 120.62 129.45"/>
        <polygon class="cls-2" points="120.62 189.96 49.92 189.96 53.24 220.6 120.62 220.6 120.62 189.96"/>
        <polygon class="cls-2" points="120.62 268.86 86.69 259.92 85.27 236.17 54.77 236.17 58.35 282.64 120.62 300.77 120.62 268.86"/>
      </g>
    </g>
  </g>
  <g id="Layer_1" data-name="Layer 1">
    <g>
      <polygon class="cls-4" points="43.09 0 88.95 0 88.95 19.24 62.08 19.24 62.08 38.48 88.95 38.48 88.95 57.6 43.09 57.6 43.09 0"/>
      <polygon class="cls-4" points="98.19 0 143.55 0 143.55 16.87 117.19 16.87 117.19 19.87 143.55 19.87 143.55 58.6 98.19 58.6 98.19 40.98 124.68 40.98 124.68 37.48 98.19 37.48 98.19 0"/>
      <polygon class="cls-4" points="152.8 0 198.15 0 198.15 16.87 171.79 16.87 171.79 19.87 198.15 19.87 198.15 58.6 152.8 58.6 152.8 40.98 179.28 40.98 179.28 37.48 152.8 37.48 152.8 0"/>
    </g>
  </g>
</svg>