<?xml version="1.0" encoding="UTF-8"?>
<svg xmlns="http://www.w3.org/2000/svg" viewBox="0 0 241.72 350.67">
  <defs>
    <style>
      .cls-1 {
        fill: #fff;
      }

      .cls-2 {
        fill: #e54c21;
      }

      .cls-3 {
        fill: #fbb5cf;
      }

      .cls-4 {
        fill: #f16524;
      }

      .cls-5 {
        fill: #ececec;
      }
    </style>
  </defs>
  <g id="Layer_4" data-name="Layer 4">
    <g>
      <polygon class="cls-2" points="220.44 324.03 120.86 350.67 21.27 324.03 0 77.65 241.72 77.65 220.44 324.03"/>
      <polygon class="cls-4" points="200.36 308.55 120.86 330.23 120.86 98.09 219.14 98.09 200.36 308.55"/>
      <g>
        <polygon class="cls-1" points="120.84 127.91 196.98 127.91 193.8 159.17 120.84 159.17 120.84 127.91"/>
        <polygon class="cls-1" points="120.84 190.14 190.32 190.14 182.22 283.34 120.84 300.41 120.84 268.57 153.56 258.73 157.33 219.95 120.84 219.95 120.84 190.14"/>
        <polygon class="cls-5" points="120.84 127.91 44.74 127.91 53.13 219.95 120.84 219.95 120.84 190.14 80.92 190.14 78.02 159.17 120.84 159.17 120.84 127.91"/>
        <polygon class="cls-5" points="120.84 268.57 86.99 258.73 84.97 234.13 55.16 234.13 58.92 281.89 120.84 300.41 120.84 268.57"/>
      </g>
    </g>
  </g>
  <g id="Layer_5" data-name="Layer 5">
    <g>
      <polygon class="cls-3" points="0 0 18.8 0 18.8 19 36.01 19 36.01 0 54.8 0 54.8 57.59 36.27 57.59 36.27 37.74 18.27 37.74 18.27 57.59 0 57.59 0 0"/>
      <polygon class="cls-3" points="63.54 1.11 115.17 1.11 115.17 19.58 99.02 19.58 99.02 57.59 79.42 57.59 79.42 19.85 63.54 19.85 63.54 1.11"/>
      <polygon class="cls-3" points="123.21 57.59 123.21 0 144.29 0 154.88 19.54 167.06 0 187.18 0 187.18 57.59 168.65 57.59 168.65 28.24 155.19 47.64 142.17 28.24 142.17 57.59 123.21 57.59"/>
      <polygon class="cls-3" points="197.24 0 215.51 0 215.51 37.74 241.72 37.74 241.72 57.65 197.24 57.65 197.24 0"/>
    </g>
  </g>
</svg>