<?xml version="1.0" encoding="UTF-8"?>
<svg id="Layer_1" data-name="Layer 1" xmlns="http://www.w3.org/2000/svg" viewBox="0 0 241.72 351.62">
  <defs>
    <style>
      .cls-1 {
        fill: #f4f4f4;
      }

      .cls-2 {
        fill: #fff;
      }

      .cls-3 {
        fill: #ffe97b;
      }

      .cls-4 {
        fill: #f7ecbf;
      }

      .cls-5 {
        fill: #fbb5cf;
      }
    </style>
  </defs>
  <g>
    <polygon class="cls-3" points="220.44 324.99 120.86 351.62 21.27 324.99 0 78.6 241.72 78.6 220.44 324.99"/>
    <polygon class="cls-4" points="200.36 309.5 120.86 331.18 120.86 99.05 219.14 99.05 200.36 309.5"/>
  </g>
  <polygon class="cls-2" points="108.77 123.88 108.77 311.56 41.76 300.31 41.5 274.58 86.02 280.75 86.02 123.88 108.77 123.88"/>
  <polygon class="cls-1" points="196.45 123.88 134.84 123.88 134.84 214.97 170 210.61 170 276.48 134.84 284.54 134.84 311.56 192.59 296.01 196.45 185.96 151.9 188.81 151.9 149.47 196.45 146.63 196.45 123.88"/>
  <g>
    <polygon class="cls-5" points="126.62 0 171.97 0 171.97 16.87 145.61 16.87 145.61 19.87 171.97 19.87 171.97 58.6 126.62 58.6 126.62 40.98 153.11 40.98 153.11 37.48 126.62 37.48 126.62 0"/>
    <polygon class="cls-5" points="95.64 0 114.53 0 114.53 58.6 69.74 58.6 69.74 35.26 80.14 35.17 80.32 41.26 95.64 41.29 95.64 0"/>
  </g>
</svg>