<?xml version="1.0" encoding="UTF-8"?>
<svg xmlns="http://www.w3.org/2000/svg" viewBox="0 0 241.72 350.61">
  <defs>
    <style>
      .cls-1 {
        fill: #fff;
      }

      .cls-2 {
        fill: #f1eaf4;
      }

      .cls-3 {
        fill: #cfbfe8;
      }

      .cls-4 {
        fill: #8f74b2;
      }

      .cls-5 {
        fill: #fbb5cf;
      }
    </style>
  </defs>
  <g id="Layer_1" data-name="Layer 1">
    <polygon class="cls-4" points="220.44 323.97 120.86 350.61 21.27 323.97 0 77.59 241.72 77.59 220.44 323.97"/>
    <polygon class="cls-3" points="200.36 308.49 120.86 330.16 120.86 98.03 219.14 98.03 200.36 308.49"/>
  </g>
  <g id="Layer_4" data-name="Layer 4">
    <polygon class="cls-2" points="59.43 253.85 44.79 253.85 44.79 178.62 59.43 164.66 73.05 164.66 88.03 150.71 109.81 149 120.86 167.05 120.86 167.05 120.86 255.56 89.05 255.56 89.05 213.34 71.69 209.6 64.2 217.09 59.43 253.85"/>
    <polygon class="cls-1" points="120.86 167.05 161.9 167.05 170 171.13 172.79 178.37 190.41 184.66 197.39 183.98 194.51 194.6 188.79 189.17 174.81 185.26 177.22 196.66 172.55 255.56 139.69 255.56 140.45 226.28 120.86 225.6 120.86 167.05"/>
  </g>
  <g id="Layer_2" data-name="Layer 2">
    <g>
      <path class="cls-5" d="M28.03,0V57.58h18.27v-19.96h36.53V0H28.03Zm36,24.47h-18.26V12.98h18.26v11.49Z"/>
      <path class="cls-5" d="M159.12,0V57.58h18.27v-19.96h36.53V0h-54.8Zm36,24.47h-18.26V12.98h18.26v11.49Z"/>
      <polygon class="cls-5" points="93.46 0 112.25 0 112.25 19 129.46 19 129.46 0 148.26 0 148.26 57.59 129.73 57.59 129.73 37.74 111.72 37.74 111.72 57.59 93.46 57.59 93.46 0"/>
    </g>
  </g>
</svg>