<?xml version="1.0" encoding="UTF-8"?>
<svg xmlns="http://www.w3.org/2000/svg" viewBox="0 0 241.72 351.62">
  <defs>
    <style>
      .cls-1 {
        fill: #fff;
      }

      .cls-2 {
        fill: #e7e9f2;
      }

      .cls-3 {
        fill: #fbb5cf;
      }

      .cls-4 {
        fill: #c1c6e8;
      }

      .cls-5 {
        fill: #8d9cd7;
      }
    </style>
  </defs>
  <g id="Layer_1" data-name="Layer 1">
    <polygon class="cls-5" points="220.44 324.99 120.86 351.62 21.27 324.99 0 78.6 241.72 78.6 220.44 324.99"/>
    <polygon class="cls-4" points="198.96 313.97 119.45 335.64 119.45 103.51 217.74 103.51 198.96 313.97"/>
    <polygon class="cls-4" points="200.04 319.25 120.54 340.92 120.54 108.79 218.82 108.79 200.04 319.25"/>
    <path class="cls-2" d="m119.45,170.29l-18.4-17.62-15.66-8.68-13.66-3.61-17.39-8.77-8.17,4.09,15.32,16.6,8.17,27.06-2.55,19.91,6.61,24.45s7.49-4.75,7.94-5.3c.25-.3.54-9.46.54-9.46l1.98-5.3,15.51,21.85,19.77,18.13v-73.36Z"/>
    <polyline class="cls-1" points="119.45 170.29 128.16 181.91 145.99 184.42 160.84 191.1 168.96 199.14 149.9 203.66 141 207.72 159.02 241.41 188.39 259.03 192.73 269.07 163.88 265.92 159.77 288.85 148.2 292.42 147.52 258.79 119.45 243.66"/>
  </g>
  <g id="Layer_2" data-name="Layer 2">
    <polygon class="cls-3" points="36.54 0 81.9 0 81.9 16.87 55.53 16.87 55.53 19.87 81.9 19.87 81.9 58.6 36.54 58.6 36.54 40.98 63.03 40.98 63.03 37.48 36.54 37.48 36.54 0"/>
    <polygon class="cls-3" points="159.15 0 177.42 0 177.42 38.36 203.63 38.36 203.63 58.6 159.15 58.6 159.15 0"/>
    <g>
      <path class="cls-3" d="m98.18,0v58.6h41.27V0h-41.27Zm28.17,42.45h-15.07v-26.3h15.07v26.3Z"/>
      <rect class="cls-3" x="118.82" y="33.13" width="24.72" height="18.64"/>
    </g>
  </g>
</svg>