<?xml version="1.0" encoding="UTF-8"?>
<svg id="Layer_1" data-name="Layer 1" xmlns="http://www.w3.org/2000/svg" viewBox="0 0 48.98 48.98">
  <defs>
    <style>
      .cls-1 {
        fill: #851C4D;
      }
    </style>
  </defs>
  <path class="cls-1" d="m44.67,0H4.31C1.93,0,0,1.93,0,4.31v40.36c0,2.38,1.93,4.31,4.31,4.31h40.36c2.38,0,4.31-1.93,4.31-4.31V4.31c0-2.38-1.93-4.31-4.31-4.31ZM15.87,33.1c.54.54.54,1.4,0,1.94s-1.4.54-1.94,0l-9.58-9.58c-.54-.53-.54-1.4,0-1.94,0,0,0,0,0,0l9.58-9.58c.53-.54,1.4-.54,1.94,0,0,0,0,0,0,0,.54.53.54,1.4,0,1.94,0,0,0,0,0,0l-8.62,8.62,8.62,8.61ZM31.28,7.09l-10.95,35.6c-.22.72-.99,1.13-1.71.91-.72-.22-1.13-.99-.91-1.71L28.66,6.29c.22-.72.99-1.13,1.71-.91.72.22,1.13.99.91,1.71Zm13.35,18.37l-9.58,9.58c-.54.54-1.4.54-1.94,0s-.54-1.4,0-1.94l8.62-8.61-8.62-8.62s0,0,0,0c-.53-.54-.53-1.4,0-1.94,0,0,0,0,0,0,.54-.53,1.4-.53,1.94,0l9.58,9.58s0,0,0,0c.53.54.53,1.4,0,1.94Z"/>
</svg>