<?xml version="1.0" encoding="UTF-8"?>
<svg id="Layer_1" data-name="Layer 1" xmlns="http://www.w3.org/2000/svg" viewBox="0 0 2612.14 1249.03">
  <defs>
    <style>
      .cls-1 {
        fill: #fa69a1;
      }

      .cls-1, .cls-2, .cls-3, .cls-4, .cls-5 {
        fill-rule: evenodd;
      }

      .cls-2 {
        fill: #9dddf1;
      }

      .cls-3 {
        fill: #851c4d;
      }

      .cls-6 {
        fill: #3e2d4c;
      }

      .cls-4 {
        fill: #fbb5cf;
      }

      .cls-5 {
        fill: #442f86;
      }
    </style>
  </defs>
  <g>
    <rect class="cls-6" x="289.36" y="10.61" width="214.04" height="1234.87"/>
    <rect class="cls-6" x="634.21" y="14.15" width="214.04" height="1234.87"/>
    <rect class="cls-6" x="1375.43" width="214.04" height="1234.87"/>
    <rect class="cls-6" x="1038.51" y="3.54" width="214.04" height="1234.87"/>
    <rect class="cls-6" x="1720.28" y="3.54" width="214.04" height="1234.87"/>
    <rect class="cls-6" x="2108.73" y="3.54" width="214.05" height="1234.87"/>
  </g>
  <g>
    <path class="cls-2" d="m1042.99,491.16h-19.08c-13.08,0-23.68,10.6-23.68,23.68v38.36c0,13.08-10.6,23.68-23.68,23.68h-116.24c-13.08,0-23.68-10.6-23.68-23.68v-38.36c0-13.08-10.6-23.68-23.68-23.68h-211.96c-13.08,0-23.68-10.6-23.68-23.68v-76.09c0-4.81,1.46-9.5,4.2-13.46l200.91-290.89c4.42-6.4,11.7-10.22,19.48-10.22h116.27c18.9,0,30.18,21.05,19.72,36.79l-139.66,210.02c-10.47,15.74.82,36.79,19.72,36.79,13.08,0,23.68-10.6,23.68-23.68v-29.08c0-13.08,10.6-23.68,23.68-23.68h111.23c13.08,0,23.68,10.6,23.68,23.68v29.08c0,13.08,10.6,23.68,23.68,23.68h19.08c13.08,0,23.68,10.6,23.68,23.68v83.37c0,13.08-10.6,23.68-23.68,23.68Z"/>
    <path class="cls-2" d="m1199.18,557.23c-34.06-20.72-60.72-50.72-80.01-90.01-19.28-39.29-28.93-86.08-28.93-140.37s9.65-101.08,28.93-140.37c19.29-39.29,45.96-69.29,80.01-90.01,34.04-20.72,73.22-31.08,117.52-31.08s83.45,10.36,117.51,31.08c34.05,20.71,60.72,50.72,80.01,90.01,19.29,39.29,28.93,86.08,28.93,140.37s-9.64,101.08-28.93,140.37c-19.29,39.29-45.96,69.29-80.01,90.01-34.06,20.72-73.22,31.08-117.51,31.08s-83.48-10.36-117.52-31.08h0Zm174.66-230.38h0c0-84.29-19.05-126.44-57.14-126.44s-57.15,42.15-57.15,126.44,19.04,126.44,57.15,126.44,57.14-42.15,57.14-126.44Z"/>
    <path class="cls-2" d="m2045.95,491.16h-19.08c-13.08,0-23.68,10.6-23.68,23.68v38.36c0,13.08-10.6,23.68-23.68,23.68h-116.24c-13.08,0-23.68-10.6-23.68-23.68v-38.36c0-13.08-10.6-23.68-23.68-23.68h-211.95c-13.08,0-23.68-10.6-23.68-23.68v-76.09c0-4.81,1.46-9.5,4.2-13.46l200.91-290.88c4.42-6.4,11.7-10.22,19.48-10.22h116.27c18.9,0,30.18,21.05,19.72,36.79l-139.66,210.02c-10.47,15.74.82,36.79,19.72,36.79,13.08,0,23.68-10.6,23.68-23.68v-29.08c0-13.08,10.6-23.68,23.68-23.68h111.23c13.08,0,23.68,10.6,23.68,23.68v29.08c0,13.08,10.6,23.68,23.68,23.68h19.08c13.08,0,23.68,10.6,23.68,23.68v83.37c0,13.08-10.6,23.68-23.68,23.68Z"/>
  </g>
  <g>
    <path class="cls-3" d="m219.65,884.39c73.25,0,133.84-23.5,183.68-70.92,59.61-56.72,94.11-137.34,127.47-215.3,37.71-88.13,73.33-171.37,138.39-192.19,28.66-9.17,54.73-6.09,79.7,9.45,109.77,68.31,151.37,340.26,151.77,342.99l37.09-5.52c-1.77-11.88-44.72-291.94-169.05-369.31-34.39-21.4-71.72-25.88-110.94-13.32-81.36,26.05-120.26,116.93-161.43,213.15-63.99,149.52-130.14,304.14-360.41,253.61l-111.4-36.04c-9.85-3.19-20.42,2.22-23.61,12.07-3.19,9.85,2.22,20.42,12.08,23.61l113.96,36.79c32.95,7.28,63.81,10.94,92.7,10.94Z"/>
    <path class="cls-1" d="m853.38,1069.6l-39.91-193.49c-13.78-66.82,25.13-133.25,90.16-153.9,72.75-23.11,150,19.49,169.27,93.35l48.97,187.67-268.5,66.38Z"/>
    <path class="cls-4" d="m853.46,1074.73c4.29,17.81,68.63,17.58,143.72-.51,75.08-18.09,132.47-47.18,128.19-64.99-4.29-17.81-68.63-17.58-143.72.51-75.09,18.09-132.48,47.18-128.19,64.99Z"/>
    <path class="cls-3" d="m1015.59,1022.23c-1.08,6.01,9.66,12.97,23.99,15.54,14.33,2.57,26.82-.21,27.9-6.22,1.08-6.01-9.66-12.97-23.99-15.54-14.33-2.57-26.82.21-27.9,6.22Z"/>
    <path class="cls-3" d="m920.97,1051.24c-1.08,6.01,9.66,12.97,23.99,15.54,14.33,2.57,26.82-.21,27.9-6.22,1.08-6.01-9.66-12.97-23.99-15.54-14.33-2.57-26.82.21-27.9,6.22Z"/>
    <polygon class="cls-5" points="922.64 676.3 894.68 725.15 931.52 716.6 922.64 676.3"/>
  </g>
  <g>
    <path class="cls-3" d="m2612.14,625.2l-14.91,33.15c-2.59-1.16-64.16-29.73-120.68-130.33-16.34-29.08-41.4-63.1-67.99-59.96-19.07,2.25-69.65,29.34-127.17,231.78-62.72,220.76-196.87,365-398.72,428.72-130.64,41.24-292.2-46.78-299.01-50.55l17.59-31.81c2.03,1.12,155.01,84.15,270.48,47.7,189.46-59.81,315.53-195.73,374.7-403.99,47.34-166.61,98.98-250.98,157.87-257.94,37.32-4.41,72.28,21.93,103.94,78.26,50.73,90.29,103.37,114.75,103.9,114.99h0Zm-1010.89,420.99s0,0,0,0l-8.78,15.91,8.79-15.91h0Z"/>
    <path class="cls-3" d="m1263.94,913.94l95.75,69.38c8,5.8,9.79,16.99,3.99,24.99-5.8,8-16.99,9.79-24.99,3.99l-95.75-69.38c-8-5.8-9.79-16.99-3.99-24.98,5.8-8,16.98-9.79,24.99-3.99Z"/>
    <path class="cls-3" d="m1337.8,807.65l95.75,69.38c8,5.8,9.79,16.98,3.99,24.99-5.8,8-16.98,9.79-24.99,3.99l-95.75-69.38c-8-5.8-9.79-16.98-3.99-24.99,5.8-8,16.98-9.79,24.98-3.99Z"/>
    <polygon class="cls-5" points="1672.81 1083.76 1613.38 1092.62 1629.83 1059.48 1686.01 1081.61 1672.81 1083.76"/>
    <path class="cls-1" d="m1271.23,1013.22l165.64,107.68c57.2,37.18,133.24,25.16,176.18-27.86,48.03-59.32,36.52-146.79-25.24-191.65l-156.91-114-159.67,225.84Z"/>
  </g>
</svg>