<?xml version="1.0" encoding="UTF-8"?>
<svg id="Laag_2" data-name="Laag 2" xmlns="http://www.w3.org/2000/svg" viewBox="0 0 213.75 237.18">
  <defs>
    <style>
      .cls-1 {
        stroke: #fbb5cf;
        stroke-width: .5px;
      }

      .cls-1, .cls-2 {
        fill: none;
        stroke-miterlimit: 10;
      }

      .cls-2 {
        stroke: #675a7a;
      }

      .cls-3 {
        fill: #fbb5cf;
      }

      .cls-4 {
        fill: #675a7a;
      }

      .cls-5 {
        fill: #554568;
      }
    </style>
  </defs>
  <g>
    <path class="cls-5" d="m182.79,197.05c71.9,25.82-8.28,64-56.74,19.23-32.59-16.9-39.4,1.9-74.82-8.37,0,0-9.4-3.4-10.73-10.9,21.44-9.26,51.66-44.04,51.66-44.04,12.99-14.04,25.41-20.17,36.67-20.91,31.42-2.07,53.77,37.83,53.96,64.99Z"/>
    <path class="cls-5" d="m21.77,211.38c-3.35-.19-5.38-1.76-6.37-3.89-.62-1.29-.84-2.79-.74-4.31-3.56.42-10.1-4.89-6.76-9.89l1.62.29c-.51.65-.67,1.78-.32,2.93.47,1.59,1.72,2.62,2.77,2.3,1.06-.32,1.53-1.86,1.06-3.45l1.34-.19c.03.1.06.21.1.31.59,1.55,2.11,2.41,3.4,1.92,1.3-.49,1.87-2.14,1.28-3.69-.48-1.25-1.57-2.06-2.65-2.06l1.82-2.01,1.82.38,6.58-3.11c10.29-18.77,11.53-28.92,12.2-40.33,0-.03.01-.07.01-.11.66-4.89,25.46-93.25,72.69-124.24,5.09-3.34,10.45-6.02,16.07-7.85,82.61-29.01,99.62,27.99,22.17,55.55-2.5,1.33-3.49,4.41-2.24,6.95,13.3,41.76,4.68,51.97-18.85,54.4-5.33.55-11.44.7-18.22.72-27.98,17.13-40.45,40.84-71.92,63.67l1.87,1.34c1.33,7.5,10.73,10.9,10.73,10.9,16.85,9.29,11.6,6.75,36.58,4.73,23.82,3.53-4.91,23.54-17.08,19.56-8.32,3.66-26.31-4.38-36.89-12.9-2.71-2.18-4.93-4.4-6.37-6.45-.48-.66-.86-1.31-1.16-1.93-1.73.39-3.23.53-4.54.46ZM162.25,47.38c-.64-8.6,2.18-10.44,2.18-10.44-6.57-49.5-65.85,9.65-21.23,13.9,0,0,3.19.4,6.41,4.81,0,0,3.28-2.79,12.64-8.27Z"/>
    <path class="cls-3" d="m164.43,36.94s-2.82,1.84-2.18,10.44c-9.36,5.48-12.64,8.27-12.64,8.27-3.22-4.41-6.41-4.81-6.41-4.81-44.62-4.25,14.66-63.4,21.23-13.9Zm-7.98,5.14c2.05-.84,2.37-4.73.74-8.69-1.64-3.96-4.62-6.48-6.66-5.63-2.04.84-2.37,4.73-.73,8.69,1.63,3.96,4.61,6.48,6.65,5.63Zm-10.53,4.34c1.5-1.62.41-5.06-2.42-7.69-2.84-2.63-6.35-3.44-7.85-1.82-1.51,1.62-.42,5.06,2.41,7.69,2.84,2.63,6.35,3.44,7.86,1.82Z"/>
    <path class="cls-5" d="m157.19,33.39c1.63,3.96,1.31,7.85-.74,8.69-2.04.85-5.02-1.67-6.65-5.63-1.64-3.96-1.31-7.85.73-8.69,2.04-.85,5.02,1.67,6.66,5.63Z"/>
    <path class="cls-5" d="m143.5,38.73c2.83,2.63,3.92,6.07,2.42,7.69-1.51,1.62-5.02.81-7.86-1.82-2.83-2.63-3.92-6.07-2.41-7.69,1.5-1.62,5.01-.81,7.85,1.82Z"/>
    <path class="cls-4" d="m41.56,32.54c45.71-56.84,89.23-23.97,69.5-11.16-1.32.85-2.91,1.61-4.8,2.25-32.34,19.99-62.52,81.6-65.75,104.04-1.06,7.34-1.26,13.23-1.58,18.8,0,.04-.01.08-.01.11-.67,11.41-1.91,21.56-12.2,40.33,14.45-38.16-33.91-93.74,14.84-154.37Z"/>
    <path class="cls-5" d="m22.33,160.61c6.44,15.3-.68,25.3-3.2,28.17l-2.75-.94c5-3.47-1.42-23.12,3.59-27.81.74-.7,1.97-.36,2.36.58Z"/>
    <path class="cls-3" d="m19.15,193.71c.59,1.55.02,3.2-1.28,3.69-1.29.49-2.81-.37-3.4-1.92-.04-.1-.07-.21-.1-.31-.4-1.46.17-2.92,1.38-3.38.25-.09.5-.14.75-.14,1.08,0,2.17.81,2.65,2.06Z"/>
    <path class="cls-5" d="m16.38,187.84l2.75.94c-.49.57-.81.86-.81.86l-1.82,2.01c-.25,0-.5.05-.75.14-1.21.46-1.78,1.92-1.38,3.38l-1.34.19c-.48-1.58-1.72-2.61-2.78-2.3-.29.09-.54.27-.73.52l-1.62-.29c.83-1.24,2.27-2.47,4.51-3.58-1.21-4.59-16.38-24.59-11.01-26.86,8.56,3.95,11.47,21.17,14.21,25.36.28-.09.54-.21.77-.37Z"/>
    <path class="cls-3" d="m13.03,195.36c.47,1.59,0,3.13-1.06,3.45-1.05.32-2.3-.71-2.77-2.3-.35-1.15-.19-2.28.32-2.93.19-.25.44-.43.73-.52,1.06-.31,2.3.72,2.78,2.3Z"/>
  </g>
  <g>
    <path class="cls-2" d="m22.93,210.79c-.2-.03-.64.2-1.16.59-1.2.87-2.84,2.51-3.04,3.48-.29,1.38-.61,6.37-.61,6.37"/>
    <path class="cls-2" d="m27.77,212.69c-.1.04-.2.1-.3.16-1.32.82-3.21,3.16-3.21,3.16l-.89,7.76"/>
    <path class="cls-2" d="m34.14,219.08c-.11.07-.21.14-.3.22-1.59,1.23-1.59,3.43-1.59,3.43l3,6.41"/>
    <path class="cls-2" d="m15.63,207.4c-.08.03-.16.06-.23.09-3.42,1.31-4.85,2.18-4.85,2.18,0,0-3.74,3.43-4.02,4.81"/>
    <path class="cls-1" d="m149.61,55.65s3.28-2.79,12.64-8.27c-.64-8.6,2.18-10.44,2.18-10.44-6.57-49.5-65.85,9.65-21.23,13.9,0,0,3.19.4,6.41,4.81Z"/>
    <path class="cls-1" d="m143.5,38.73c2.83,2.63,3.92,6.07,2.42,7.69-1.51,1.62-5.02.81-7.86-1.82-2.83-2.63-3.92-6.07-2.41-7.69,1.5-1.62,5.01-.81,7.85,1.82Z"/>
    <path class="cls-1" d="m157.19,33.39c1.63,3.96,1.31,7.85-.74,8.69-2.04.85-5.02-1.67-6.65-5.63-1.64-3.96-1.31-7.85.73-8.69,2.04-.85,5.02,1.67,6.66,5.63Z"/>
    <path class="cls-1" d="m16.5,191.65c1.08,0,2.17.81,2.65,2.06.59,1.55.02,3.2-1.28,3.69-1.29.49-2.81-.37-3.4-1.92-.04-.1-.07-.21-.1-.31-.4-1.46.17-2.92,1.38-3.38.25-.09.5-.14.75-.14Z"/>
    <path class="cls-1" d="m13.03,195.36c.47,1.59,0,3.13-1.06,3.45-1.05.32-2.3-.71-2.77-2.3-.35-1.15-.19-2.28.32-2.93.19-.25.44-.43.73-.52,1.06-.31,2.3.72,2.78,2.3Z"/>
    <path class="cls-1" d="m41.97,221.15c.84-.55,5.57-2.45,6.44-6.61"/>
    <path class="cls-1" d="m51.09,225.94c4.7,1.7,10.87-7.13,7.84-9.92"/>
    <path class="cls-1" d="m66.8,227.89c2.57.41,6.27-10.37,4.05-10.11"/>
    <path class="cls-1" d="m81.03,227.84c1.67-1.09,4.21-6.34,3.11-8.01"/>
    <path class="cls-1" d="m30.96,195.22c2.62.34,5.91,5.36,4.76,10.9"/>
    <path class="cls-1" d="m31.8,205.62c.86,1.31,1.12,3.53-1.39,5.17"/>
    <path class="cls-1" d="m26.28,191.72c3.47-2.01,8.46,1.68,8.46,1.68"/>
  </g>
</svg>