<?xml version="1.0" encoding="utf-8"?>
<!-- Generator: Adobe Illustrator 27.6.1, SVG Export Plug-In . SVG Version: 6.00 Build 0)  -->
<svg version="1.1" id="Layer_1" xmlns="http://www.w3.org/2000/svg" xmlns:xlink="http://www.w3.org/1999/xlink" x="0px" y="0px"
	 viewBox="0 0 639.8 379.5" style="enable-background:new 0 0 639.8 379.5;" xml:space="preserve">
<style type="text/css">
	.st0{enable-background:new    ;}
	.st1{fill:#9DDDF1;}
	.st2{fill:#FBB5CF;}
	.st3{fill:#F0A2C3;}
	.st4{clip-path:url(#SVGID_00000141457397926481762130000004289053919103549616_);}
	.st5{clip-path:url(#SVGID_00000096027740535012826190000000478008317258755227_);}
	.st6{clip-path:url(#SVGID_00000013152552455003671760000016653296835521892762_);}
	.st7{fill:#554568;}
	.st8{fill:#675A7A;}
</style>
<g id="codinari">
	<g class="st0">
		<path class="st1" d="M139.6,296.4c-4.6-0.2-8.3-1-11-2.5c-2.8-1.5-5-3.1-6.5-4.8c-1.5-1.7-2.6-3.2-3.2-4.6c-0.6-1.4-1-2.3-1.1-2.8
			c-0.2-0.3-0.3-0.8-0.3-1.3v-99.1c0-0.5,0.1-0.9,0.3-1.3c0.2-0.7,0.6-1.7,1.3-3.2c0.7-1.4,1.7-2.8,3-4.2c1.5-1.7,3.7-3.3,6.5-5
			c2.8-1.6,6.5-2.4,11-2.4c5.4,0,9.8,0.7,13.1,2.2c3.3,1.4,5.9,3,7.7,4.8c1.9,1.8,3.1,3.4,3.8,5c0.7,1.5,1,2.4,1,2.5v-0.5
			c0.8,2.7-0.2,4.5-3,5.3c-1,0.3-2,0.2-3-0.4c-1-0.6-1.7-1.4-2-2.4c0-0.2-0.2-0.7-0.6-1.5c-0.4-0.8-1.3-1.8-2.5-2.8
			c-1.3-1-3-1.9-5.3-2.7c-2.3-0.8-5.3-1.1-9-1.1c-4.7,0.2-8.1,1.4-10,3.7c-1.9,2.3-3.2,3.9-3.7,5v97.3c0.5,1,1.8,2.6,3.8,4.8
			c2,2.2,5.3,3.4,9.9,3.6c6.8,0,11.9-1.5,15.2-4.6c0.8-0.8,1.4-1.6,1.8-2.3l0.5-1c0.3-1.2,1-2.1,2-2.7c1-0.6,2-0.7,3-0.4
			c2.9,0.8,3.9,2.6,3,5.3v-0.5c0,0.2-0.3,1-1,2.5c-0.7,1.5-1.9,3.2-3.7,5c-1.8,1.8-4.4,3.4-7.7,4.8c-3.4,1.4-7.7,2.2-13,2.2H139.6z"
			/>
		<path class="st1" d="M204.1,297.7c-5.1,0-9.3-0.7-12.7-2.2c-3.4-1.4-6-3-7.9-4.8c-1.9-1.8-3.2-3.4-4.1-4.8
			c-0.8-1.4-1.3-2.2-1.3-2.4V180.6c0-0.5,0.2-1.1,0.5-1.8h-0.3c1.4-3,3.9-6,7.6-8.9c3.7-2.9,8.5-4.3,14.5-4.3
			c5.2,0,9.5,0.7,12.8,2.2c3.3,1.4,5.9,3,7.9,4.7c1.9,1.7,3.3,3.3,4.1,4.7c0.8,1.4,1.1,2.2,1.1,2.4v103.1c0,0.3,0,0.7,0,1
			c0,0.3-0.2,0.7-0.5,1l0.3-0.5c-1.4,3.4-3.9,6.4-7.5,9.1c-3.6,2.7-8.4,4.1-14.4,4.3H204.1z M186.6,281.4c0.2,0.5,0.6,1.2,1.3,2
			c0.7,0.8,1.7,1.7,3,2.5c1.4,0.8,3.1,1.6,5.3,2.3c2.2,0.7,4.9,1,8.1,1c4.4-0.2,7.7-1.2,9.8-3.2c2.1-1.9,3.5-3.5,4.2-4.7l-0.3,0.5
			V181.1c-0.7-1-2.3-2.5-5-4.3c-2.6-1.9-6.9-2.8-12.8-2.8c-4.1,0-7.2,0.9-9.3,2.8c-2.1,1.9-3.6,3.5-4.4,4.8V281.4z"/>
		<path class="st1" d="M261.5,296.4c-8.1-0.3-14.1-2.5-17.8-6.3c-1.5-1.9-2.4-3.6-2.7-5.3c-0.3-1.7-0.4-2.7-0.4-3v-14
			c0-4.1,0-8.6,0-13.6c0-5,0-10.1-0.1-15.4c-0.1-5.2-0.1-10.4-0.1-15.5s0-9.7,0-13.7c0-3.7,0-7,0-9.8s0.1-4.7,0.3-5.7
			c0.2-2.5,1.1-4.8,2.9-6.7c1.8-1.9,3.9-3.6,6.2-5c2.4-1.4,5-2.5,7.9-3.4c2.9-0.9,5.6-1.8,8.1-2.7c0.2,0,0.4,0,0.6-0.1
			c0.3-0.1,0.5-0.1,0.9-0.1c0.2,0,0.3,0,0.5-0.1c0.2-0.1,0.7-0.3,1.5-0.6c2.2-0.7,4-1.8,5.3-3.3c1.4-1.5,2.5-3,3.3-4.6
			c0.8-1.9,1.5-3.7,2-5.6v0.3V92.7c0-2.7,1.4-4.1,4.1-4.1c1,0,2,0.4,2.9,1.1c0.9,0.8,1.4,1.7,1.4,2.9v189c0,2,0.5,3.6,1.5,4.6
			c0.8,0.8,1.7,1.4,2.7,1.5c0.9,0.2,1.5,0.3,1.7,0.3c2.7,0,4.1,1.4,4.1,4.3c0,2.7-1.4,4.1-4.1,4.1c-0.3,0-1.7-0.2-4.1-0.5
			c-2.4-0.3-4.5-1.5-6.4-3.6c-0.7-0.5-1.1-0.9-1.4-1.3c-0.3-0.3-0.6-0.8-1.1-1.3c-1.9,1.5-4.4,3-7.5,4.4c-3.1,1.4-6.9,2.2-11.3,2.2
			H261.5z M270.7,183.9c-0.7,0.2-1.5,0.4-2.5,0.8c-1.9,0.5-3.9,1.1-6,1.8c-2.1,0.7-4.2,1.5-6.1,2.4c-1.9,0.9-3.6,1.9-4.8,3
			c-1.3,1.1-2,2.3-2.2,3.7c-0.2,0.8-0.3,4.2-0.3,10s0,13,0,21.5c0,8.6,0,17.8,0,27.6c0,9.7,0.1,18.8,0.3,27.3c0,0.2,0,0.5,0.1,0.9
			c0.1,0.4,0.5,1.1,1.1,1.9v-0.3c0.8,0.8,2.1,1.6,3.8,2.3c1.7,0.7,4.2,1.1,7.6,1.3c3.6,0.2,6.5-0.3,8.9-1.3c2.4-1,4.2-2.1,5.6-3.3
			c1.4-1.2,2.4-2.3,3-3.4c0.7-1.1,1-1.7,1-1.9l-0.3,0.5V178.6c-1.4,1.2-2.8,2.2-4.2,3.2c-1.4,0.9-3.1,1.7-5,2.2H270.7z"/>
		<path class="st1" d="M322.2,145.8c0,1.9-0.7,3.5-2,4.8c-1.4,1.4-3,2-4.8,2c-1.9,0-3.5-0.7-4.8-2c-1.4-1.4-2-3-2-4.8
			c0-1.9,0.7-3.5,2-4.8c1.4-1.4,3-2,4.8-2c1.9,0,3.5,0.7,4.8,2C321.6,142.3,322.2,143.9,322.2,145.8z M315.1,296.4
			c-2.7,0-4.1-1.4-4.1-4.3V167.6c0-2.7,1.4-4.1,4.1-4.1c2.9,0,4.3,1.4,4.3,4.1v124.5C319.4,295,318,296.4,315.1,296.4z"/>
		<path class="st1" d="M337.7,296.4c-2.7,0-4.1-1.4-4.1-4.3V169.7c0-2.7,1.4-4.1,4.1-4.1c2.9,0,4.3,1.4,4.3,4.1v2.3l-2-1
			c1.9-1.5,4.1-2.8,6.7-3.8c2.6-1,5.7-1.5,9.3-1.5c5.2,0,9.5,0.7,12.8,2.2c3.3,1.4,5.9,3,7.9,4.8c1.9,1.8,3.3,3.4,4.1,4.8
			c0.8,1.4,1.1,2.2,1.1,2.4l0.3,0.8v111.5c0,1.4-0.5,2.4-1.4,3.2c-0.9,0.8-1.9,1.1-2.9,1.1c-2.7,0-4.1-1.4-4.1-4.3V181.4
			c-0.7-1-2.3-2.5-4.8-4.4c-2.5-1.9-6.9-2.9-13.2-2.9c-4.4,0-7.7,1-9.8,2.9c-2.1,1.9-3.5,3.5-4.2,4.7l0.3-0.5v111
			C342,295,340.6,296.4,337.7,296.4z"/>
		<path class="st1" d="M420,297.2c-8.1-0.3-14.1-2.5-17.8-6.4c-1.5-1.9-2.5-3.6-2.8-5.3c-0.3-1.7-0.5-2.7-0.5-3v-4.8v-35.3v-11.2
			c0.2-2.7,1.1-5,2.9-6.9c1.8-1.9,3.9-3.5,6.4-4.8c2.5-1.4,5.1-2.5,8-3.4c2.9-0.9,5.6-1.8,8.1-2.7h-0.3l2.3-0.8
			c2.4-0.7,4.3-1.8,5.8-3.3c1.5-1.5,2.8-3,3.7-4.6c0.9-1.5,1.7-3.5,2.4-5.8v-17.3c-0.5-1.2-1.8-2.8-3.9-5c-2.1-2.1-5.4-3.2-9.8-3.2
			c-3,0-5.7,0.5-7.9,1.4c-2.2,0.9-4.1,2-5.6,3.2c-1.5,1.2-2.7,2.3-3.6,3.3c-0.8,1-1.3,1.6-1.3,1.8c-0.5,0.8-1.3,1.3-2.4,1.3
			c-1.1,0-2.2-0.3-3.2-0.8c-0.8-0.5-1.4-1.4-1.5-2.5c-0.2-1.2,0-2.3,0.5-3.3c0.2-0.3,0.8-1.2,2-2.5c1.2-1.4,2.8-2.8,4.8-4.3
			s4.5-2.9,7.5-4.1c3-1.2,6.5-1.8,10.5-1.8c4.4,0,8.1,0.8,11,2.4c3,1.6,5.2,3.3,6.7,5c1.4,1.4,2.3,2.7,2.9,3.9
			c0.6,1.3,1.1,2.3,1.4,3.2c0,17.3,0,31.9,0,43.8c0,11.9,0,21.8,0.1,29.7c0.1,7.9,0.2,14,0.4,18.3c0.2,4.3,0.3,7.6,0.4,9.8
			c0.1,2.2,0.2,3.6,0.4,4.1c0.2,0.5,0.3,0.8,0.5,1c0.3,0.5,0.8,0.8,1.4,1c0.6,0.2,1.1,0.3,1.4,0.5c0.5,0.2,0.9,0.3,1.3,0.3
			c2.9,0,4.3,1.4,4.3,4.3c0,2.7-1.4,4.1-4.3,4.1c-0.3,0-1.7-0.2-3.9-0.5c-2.3-0.3-4.4-1.5-6.5-3.6h0.3c-1.2-1-2.1-2.3-2.8-3.8
			l2.3,0.5c-0.2,0.2-0.3,0.3-0.4,0.4c-0.1,0.1-0.3,0.2-0.6,0.4c-1.9,1.5-4.4,3.1-7.7,4.8c-3.3,1.7-7.3,2.5-12.1,2.5H420z
			 M429.2,220.7c0.3-0.2,0-0.1-0.9,0.1c-0.9,0.3-1.6,0.5-1.9,0.6c-1.9,0.5-3.9,1.1-6,1.9c-2.1,0.8-4.2,1.6-6.1,2.4
			c-1.9,0.8-3.6,1.8-4.8,2.8c-1.3,1-2,2.1-2.2,3.3v34.3v16.5c0,0.7,0.5,1.6,1.5,2.8v-0.3c0.8,0.8,2.1,1.6,3.7,2.3
			c1.6,0.7,4.1,1.1,7.5,1.3c3.2,0.2,5.9-0.2,8.1-1c2.2-0.8,4-1.8,5.5-2.9c1.4-1.1,2.5-2.2,3.3-3.2c0.8-1,1.3-1.8,1.7-2.3l-0.3,0.5
			v-64.3c-2.7,2.4-5.8,4.1-9.4,5.1H429.2z"/>
		<path class="st1" d="M468.3,296.4c-2.9,0-4.3-1.4-4.3-4.3v-124c0-2.9,1.4-4.3,4.3-4.3c2.7,0,4.1,1.4,4.1,4.3v2.3l-2-1
			c1.9-1.7,4.1-3,6.9-4.1c2.7-1,5.8-1.5,9.1-1.5c5.2,0,9.6,0.7,13,2.2c3.4,1.4,6.1,3,8,4.8c1.9,1.8,3.3,3.4,3.9,4.8
			c0.7,1.4,1,2.2,1,2.4v-0.5c0.3,1,0.3,2-0.3,3c-0.5,1-1.2,1.7-2,2c-0.7,0.3-1.3,0.5-1.8,0.5c-1.9,0-3.2-0.9-4.1-2.8
			c0-0.2-0.3-0.7-0.8-1.5c-0.5-0.8-1.4-1.8-2.7-2.8c-1.3-1-3.1-1.9-5.5-2.7c-2.4-0.8-5.4-1.1-9.1-1.1c-4.4,0-7.7,1-9.8,2.9
			c-2.1,1.9-3.4,3.6-3.9,5v112C472.3,295,471,296.4,468.3,296.4z"/>
		<path class="st1" d="M527.7,145.8c0,1.9-0.7,3.5-2,4.8c-1.4,1.4-3,2-4.8,2c-1.9,0-3.5-0.7-4.8-2c-1.4-1.4-2-3-2-4.8
			c0-1.9,0.7-3.5,2-4.8c1.4-1.4,3-2,4.8-2c1.9,0,3.5,0.7,4.8,2C527,142.3,527.7,143.9,527.7,145.8z M520.6,296.4
			c-2.7,0-4.1-1.4-4.1-4.3V167.6c0-2.7,1.4-4.1,4.1-4.1c2.9,0,4.3,1.4,4.3,4.1v124.5C524.9,295,523.5,296.4,520.6,296.4z"/>
	</g>
</g>
<g id="WELKOM_BIJ">
	<g class="st0">
		<path class="st2" d="M171.2,8.7v24.4c0,5.5-1.3,9.6-4,12.4c-2.6,2.8-6.4,4.2-11.3,4.2c-2.9,0-5.4-0.5-7.6-1.6
			c-2.2-1.1-3.9-2.5-5-4.4c-1.2,1.9-2.9,3.3-5,4.4c-2.1,1.1-4.7,1.6-7.6,1.6c-4.9,0-8.7-1.4-11.3-4.2c-2.6-2.8-3.9-6.9-3.9-12.4V8.7
			h5.6v24.2c0,7.8,3.2,11.7,9.6,11.7c3.1,0,5.5-0.9,7.3-2.8c1.7-1.9,2.6-4.8,2.6-8.8V8.7h5.6v24.2c0,4,0.9,6.9,2.6,8.8
			c1.7,1.9,4.1,2.8,7.2,2.8c6.5,0,9.7-3.9,9.7-11.7V8.7H171.2z"/>
		<path class="st2" d="M212,45.1c-1.7,1.5-3.9,2.6-6.6,3.5c-2.7,0.8-5.7,1.2-8.9,1.2c-3.6,0-6.7-0.5-9.2-1.5c-2.5-1-4.4-2.3-5.7-4.1
			c-1.3-1.7-1.9-3.8-1.9-6c0-2.3,0.6-4.3,1.9-6c1.3-1.7,3-2.9,5-3.6c-1.7-0.8-2.9-1.9-3.9-3.5c-0.9-1.6-1.4-3.4-1.4-5.4
			c0-2.1,0.6-4,1.8-5.7c1.2-1.7,3-3.1,5.4-4.1c2.4-1,5.3-1.5,8.8-1.5c2.4,0,4.8,0.3,7.1,0.8c2.3,0.5,4.3,1.3,6,2.3l-1.6,4.6
			c-3.4-1.9-7.1-2.8-11.3-2.8c-3.4,0-6,0.6-7.8,1.9c-1.8,1.3-2.7,2.9-2.7,4.9c0,2,0.7,3.6,2.1,4.6c1.4,1.1,3.4,1.6,6,1.6h10.1v5
			h-10.4c-3,0-5.3,0.5-7,1.6c-1.7,1.1-2.5,2.7-2.5,4.9c0,2.2,1,3.9,2.9,5.2c1.9,1.2,4.8,1.9,8.6,1.9c2.6,0,5.1-0.4,7.5-1.1
			c2.4-0.8,4.3-1.8,5.9-3.1L212,45.1z"/>
		<path class="st2" d="M218.9,8.7h5.6v35.6h21.3v5h-27V8.7z"/>
		<path class="st2" d="M258.5,47.1c-3.2-1.8-5.7-4.3-7.5-7.4c-1.8-3.2-2.7-6.7-2.7-10.6c0-3.9,0.9-7.5,2.7-10.6
			c1.8-3.2,4.3-5.6,7.5-7.4c3.2-1.8,6.8-2.7,10.7-2.7c3.1,0,5.9,0.5,8.4,1.6c2.6,1.1,4.7,2.6,6.5,4.7l-3.7,3.7
			c-3-3.2-6.7-4.8-11.1-4.8c-2.9,0-5.6,0.7-7.9,2c-2.4,1.4-4.2,3.2-5.5,5.6c-1.3,2.4-2,5-2,8c0,2.9,0.7,5.6,2,8
			c1.3,2.4,3.2,4.2,5.5,5.6c2.4,1.4,5,2,7.9,2c4.4,0,8.1-1.6,11.1-4.9l3.7,3.7c-1.8,2.1-4,3.7-6.6,4.8c-2.6,1.1-5.4,1.6-8.5,1.6
			C265.3,49.8,261.7,48.9,258.5,47.1z"/>
		<path class="st2" d="M298.5,47.1c-3.2-1.8-5.7-4.3-7.5-7.5c-1.8-3.2-2.7-6.7-2.7-10.6c0-3.9,0.9-7.4,2.7-10.6
			c1.8-3.2,4.3-5.7,7.5-7.5c3.2-1.8,6.8-2.7,10.8-2.7c3.9,0,7.5,0.9,10.7,2.7c3.2,1.8,5.7,4.3,7.5,7.4c1.8,3.2,2.7,6.7,2.7,10.6
			c0,3.9-0.9,7.5-2.7,10.6c-1.8,3.2-4.3,5.6-7.5,7.4c-3.2,1.8-6.8,2.7-10.7,2.7C305.3,49.8,301.7,48.9,298.5,47.1z M317,42.6
			c2.3-1.4,4.1-3.2,5.5-5.6c1.3-2.4,2-5,2-8c0-2.9-0.7-5.6-2-8c-1.3-2.4-3.2-4.2-5.5-5.6c-2.3-1.4-4.9-2-7.8-2c-2.9,0-5.5,0.7-7.9,2
			c-2.3,1.4-4.2,3.2-5.5,5.6c-1.3,2.4-2,5-2,8c0,2.9,0.7,5.6,2,8c1.3,2.4,3.2,4.2,5.5,5.6c2.3,1.4,5,2,7.9,2
			C312.1,44.6,314.7,43.9,317,42.6z"/>
		<path class="st2" d="M392.4,12.3c2.6,2.7,3.8,6.6,3.8,11.8v25.2h-5.6V24.2c0-3.6-0.9-6.3-2.7-8.1c-1.8-1.8-4.2-2.8-7.1-2.8
			c-3.3,0-5.8,1-7.7,2.9c-1.9,1.9-2.8,4.8-2.8,8.8v24.2h-5.6V24.2c0-3.6-0.9-6.3-2.6-8.1c-1.7-1.8-4-2.7-7-2.7c-3.3,0-5.9,1-7.9,2.9
			c-1.9,1.9-2.9,4.9-2.9,8.8v24.2h-5.6V8.7h5.4v5.9c1.2-2,2.8-3.6,4.9-4.7c2.1-1.1,4.6-1.7,7.4-1.7c2.9,0,5.5,0.6,7.6,1.8
			c2.1,1.2,3.7,2.9,4.7,5c1.2-2.2,3-3.8,5.3-5c2.3-1.2,4.9-1.8,7.8-1.8C386.3,8.2,389.9,9.6,392.4,12.3z"/>
		<path class="st2" d="M437.1,45.1c-1.7,1.5-3.9,2.6-6.6,3.5c-2.7,0.8-5.7,1.2-8.9,1.2c-3.6,0-6.7-0.5-9.2-1.5
			c-2.5-1-4.4-2.3-5.7-4.1c-1.3-1.7-1.9-3.8-1.9-6c0-2.3,0.6-4.3,1.9-6c1.3-1.7,3-2.9,5-3.6c-1.7-0.8-2.9-1.9-3.9-3.5
			c-0.9-1.6-1.4-3.4-1.4-5.4c0-2.1,0.6-4,1.8-5.7c1.2-1.7,3-3.1,5.4-4.1c2.4-1,5.3-1.5,8.8-1.5c2.4,0,4.8,0.3,7.1,0.8
			c2.3,0.5,4.3,1.3,6,2.3l-1.6,4.6c-3.4-1.9-7.1-2.8-11.3-2.8c-3.4,0-6,0.6-7.8,1.9c-1.8,1.3-2.7,2.9-2.7,4.9c0,2,0.7,3.6,2.1,4.6
			c1.4,1.1,3.4,1.6,6,1.6h10.1v5h-10.4c-3,0-5.3,0.5-7,1.6c-1.7,1.1-2.5,2.7-2.5,4.9c0,2.2,1,3.9,2.9,5.2c1.9,1.2,4.8,1.9,8.6,1.9
			c2.6,0,5.1-0.4,7.5-1.1c2.4-0.8,4.3-1.8,5.9-3.1L437.1,45.1z"/>
		<path class="st2" d="M485.2,17.5c-3.8-2.2-7.9-3.6-12.3-4v35.8h-5.6V13.5c-4.4,0.4-8.5,1.8-12.3,4l-2-4.6c5-3.1,10.7-4.6,17-4.6
			c6.4,0,12.1,1.5,17.1,4.6L485.2,17.5z"/>
		<path class="st2" d="M499.3,47.1c-3.2-1.8-5.7-4.3-7.5-7.5c-1.8-3.2-2.7-6.7-2.7-10.6c0-3.9,0.9-7.4,2.7-10.6
			c1.8-3.2,4.3-5.7,7.5-7.5c3.2-1.8,6.8-2.7,10.8-2.7c3.9,0,7.5,0.9,10.7,2.7c3.2,1.8,5.7,4.3,7.5,7.4c1.8,3.2,2.7,6.7,2.7,10.6
			c0,3.9-0.9,7.5-2.7,10.6c-1.8,3.2-4.3,5.6-7.5,7.4s-6.8,2.7-10.7,2.7C506.1,49.8,502.5,48.9,499.3,47.1z M517.9,42.6
			c2.3-1.4,4.1-3.2,5.5-5.6c1.3-2.4,2-5,2-8c0-2.9-0.7-5.6-2-8c-1.3-2.4-3.2-4.2-5.5-5.6c-2.3-1.4-4.9-2-7.8-2c-2.9,0-5.5,0.7-7.9,2
			c-2.3,1.4-4.2,3.2-5.5,5.6s-2,5-2,8c0,2.9,0.7,5.6,2,8c1.3,2.4,3.2,4.2,5.5,5.6c2.3,1.4,5,2,7.9,2
			C512.9,44.6,515.5,43.9,517.9,42.6z"/>
	</g>
	<g class="st0">
	</g>
	<g class="st0">
	</g>
</g>
<g id="WEBDESIGN_DEVELOPMENT">
	<g class="st0">
		<path class="st3" d="M145,334.2v10.5c0,2.4-0.6,4.2-1.8,5.4c-1.2,1.2-2.9,1.8-5,1.8c-1.3,0-2.4-0.2-3.4-0.7s-1.7-1.1-2.2-1.9
			c-0.5,0.8-1.3,1.4-2.2,1.9s-2.1,0.7-3.4,0.7c-2.2,0-3.9-0.6-5-1.8c-1.2-1.2-1.8-3-1.8-5.4v-10.5h2.5v10.5c0,3.3,1.4,5,4.3,5
			c1.4,0,2.5-0.4,3.2-1.2c0.8-0.8,1.1-2.1,1.1-3.8v-10.5h2.5v10.5c0,1.7,0.4,3,1.1,3.8c0.8,0.8,1.8,1.2,3.2,1.2c2.9,0,4.3-1.7,4.3-5
			v-10.5H145z"/>
		<path class="st3" d="M163.1,349.9c-0.8,0.6-1.7,1.1-2.9,1.5c-1.2,0.4-2.5,0.5-4,0.5c-1.6,0-3-0.2-4.1-0.6s-2-1-2.5-1.8
			c-0.6-0.8-0.9-1.6-0.9-2.6c0-1,0.3-1.9,0.9-2.6c0.6-0.7,1.3-1.2,2.2-1.6c-0.7-0.3-1.3-0.8-1.7-1.5c-0.4-0.7-0.6-1.5-0.6-2.3
			c0-0.9,0.3-1.7,0.8-2.5c0.5-0.7,1.3-1.3,2.4-1.8c1.1-0.4,2.4-0.7,3.9-0.7c1.1,0,2.1,0.1,3.2,0.4c1,0.2,1.9,0.6,2.7,1l-0.7,2
			c-1.5-0.8-3.2-1.2-5-1.2c-1.5,0-2.7,0.3-3.5,0.8c-0.8,0.5-1.2,1.2-1.2,2.1c0,0.9,0.3,1.5,0.9,2c0.6,0.5,1.5,0.7,2.6,0.7h4.5v2.1
			h-4.6c-1.3,0-2.4,0.2-3.1,0.7c-0.8,0.5-1.1,1.2-1.1,2.1c0,0.9,0.4,1.7,1.3,2.2c0.9,0.5,2.1,0.8,3.8,0.8c1.2,0,2.3-0.2,3.3-0.5
			c1.1-0.3,1.9-0.8,2.6-1.3L163.1,349.9z"/>
		<path class="st3" d="M180.4,344.2c0.6,0.7,0.9,1.7,0.9,2.8c0,1.5-0.6,2.7-1.7,3.5s-2.8,1.2-5,1.2h-8.4v-17.5h7.9
			c2,0,3.5,0.4,4.6,1.2s1.6,1.9,1.6,3.3c0,0.9-0.2,1.7-0.6,2.4c-0.4,0.7-1,1.2-1.7,1.5C179,342.9,179.8,343.4,180.4,344.2z
			 M168.7,336.2v5.6h5.1c1.3,0,2.3-0.2,3-0.7c0.7-0.5,1-1.2,1-2.1s-0.3-1.6-1-2.1c-0.7-0.5-1.7-0.7-3-0.7H168.7z M177.7,349
			c0.7-0.5,1.1-1.2,1.1-2.2c0-2-1.4-2.9-4.3-2.9h-5.8v5.8h5.8C175.9,349.7,176.9,349.4,177.7,349z"/>
		<path class="st3" d="M185.1,334.2h7.4c1.9,0,3.5,0.4,4.9,1.1c1.4,0.7,2.5,1.8,3.3,3.1c0.8,1.3,1.2,2.8,1.2,4.6s-0.4,3.2-1.2,4.6
			c-0.8,1.3-1.9,2.4-3.3,3.1s-3.1,1.1-4.9,1.1h-7.4V334.2z M192.4,349.5c1.4,0,2.7-0.3,3.7-0.8c1.1-0.5,1.9-1.3,2.5-2.3
			c0.6-1,0.9-2.1,0.9-3.4s-0.3-2.4-0.9-3.4c-0.6-1-1.4-1.8-2.5-2.3c-1.1-0.5-2.3-0.8-3.7-0.8h-4.7v13.2H192.4z"/>
		<path class="st3" d="M218.8,349.9c-0.8,0.6-1.7,1.1-2.9,1.5c-1.2,0.4-2.5,0.5-4,0.5c-1.6,0-3-0.2-4.1-0.6s-2-1-2.5-1.8
			c-0.6-0.8-0.9-1.6-0.9-2.6c0-1,0.3-1.9,0.9-2.6c0.6-0.7,1.3-1.2,2.2-1.6c-0.7-0.3-1.3-0.8-1.7-1.5c-0.4-0.7-0.6-1.5-0.6-2.3
			c0-0.9,0.3-1.7,0.8-2.5c0.5-0.7,1.3-1.3,2.4-1.8c1.1-0.4,2.4-0.7,3.9-0.7c1.1,0,2.1,0.1,3.2,0.4c1,0.2,1.9,0.6,2.7,1l-0.7,2
			c-1.5-0.8-3.2-1.2-5-1.2c-1.5,0-2.7,0.3-3.5,0.8c-0.8,0.5-1.2,1.2-1.2,2.1c0,0.9,0.3,1.5,0.9,2c0.6,0.5,1.5,0.7,2.6,0.7h4.5v2.1
			h-4.6c-1.3,0-2.4,0.2-3.1,0.7c-0.8,0.5-1.1,1.2-1.1,2.1c0,0.9,0.4,1.7,1.3,2.2c0.9,0.5,2.1,0.8,3.8,0.8c1.2,0,2.3-0.2,3.3-0.5
			c1.1-0.3,1.9-0.8,2.6-1.3L218.8,349.9z"/>
		<path class="st3" d="M223.2,351.3c-1.2-0.4-2.2-0.9-2.9-1.6l0.9-2c0.7,0.6,1.5,1.1,2.6,1.5c1,0.4,2.1,0.6,3.2,0.6
			c1.4,0,2.5-0.2,3.2-0.7c0.7-0.5,1.1-1.1,1.1-2c0-0.6-0.2-1.1-0.6-1.5s-0.9-0.7-1.4-0.9c-0.6-0.2-1.4-0.4-2.4-0.7
			c-1.3-0.3-2.4-0.6-3.2-1c-0.8-0.3-1.5-0.8-2.1-1.5s-0.9-1.5-0.9-2.7c0-0.9,0.2-1.8,0.7-2.5c0.5-0.8,1.2-1.4,2.2-1.8
			c1-0.4,2.2-0.7,3.7-0.7c1,0,2.1,0.1,3.1,0.4s1.9,0.6,2.6,1.1l-0.8,2c-0.7-0.5-1.5-0.8-2.4-1.1c-0.8-0.2-1.6-0.4-2.5-0.4
			c-1.4,0-2.5,0.3-3.2,0.8s-1.1,1.2-1.1,2c0,0.6,0.2,1.1,0.6,1.5s0.9,0.7,1.5,0.9c0.6,0.2,1.4,0.4,2.4,0.7c1.3,0.3,2.4,0.6,3.2,1
			c0.8,0.3,1.5,0.8,2.1,1.4c0.6,0.7,0.9,1.5,0.9,2.6c0,0.9-0.2,1.8-0.8,2.5c-0.5,0.8-1.3,1.4-2.3,1.8c-1,0.4-2.3,0.7-3.8,0.7
			C225.7,351.9,224.4,351.7,223.2,351.3z"/>
	</g>
	<g class="st0">
		<path class="st3" d="M241.7,336.4v13.2h3.4v2.2h-9.2v-2.2h3.4v-13.2h-3.4v-2.2h9.2v2.2H241.7z"/>
	</g>
	<g class="st0">
		<path class="st3" d="M260.8,342.9h2.4v8.8H261v-1.2c-1.3,0.9-2.9,1.4-4.9,1.4c-1.6,0-3.1-0.4-4.4-1c-1.4-0.7-2.4-1.7-3.2-3.1
			c-0.8-1.3-1.2-2.9-1.2-4.8c0-1.7,0.4-3.3,1.2-4.7c0.8-1.4,1.9-2.4,3.4-3.2c1.4-0.8,3-1.2,4.8-1.2c1.4,0,2.7,0.2,3.8,0.7
			c1.1,0.5,2.1,1.1,2.9,2l-1.5,1.5c-1.4-1.3-3.1-2-5.1-2c-1.3,0-2.5,0.3-3.6,0.9c-1.1,0.6-1.9,1.4-2.5,2.4s-0.9,2.2-0.9,3.5
			c0,1.4,0.3,2.6,0.9,3.6s1.4,1.8,2.4,2.3c1,0.5,2.1,0.8,3.2,0.8c0.8,0,1.6-0.1,2.4-0.4c0.8-0.3,1.5-0.7,2.1-1.2V342.9z"/>
		<path class="st3" d="M281,335.9c1.2,1.3,1.8,3.1,1.8,5.4v10.4h-2.5v-10.3c0-1.7-0.4-3-1.2-3.9c-0.8-0.9-2-1.3-3.5-1.3
			c-1.6,0-2.9,0.5-3.8,1.4c-0.9,0.9-1.4,2.3-1.4,4.2v9.9H268v-17.5h2.4v2.5c1.2-1.8,3.1-2.7,5.8-2.7
			C278.2,334,279.9,334.6,281,335.9z"/>
		<path class="st3" d="M307.4,352l-2.3-2.3c-1.6,1.5-3.5,2.2-5.9,2.2c-1.2,0-2.2-0.2-3.1-0.6c-0.9-0.4-1.7-0.9-2.2-1.6
			s-0.8-1.5-0.8-2.4c0-1.1,0.3-2,1-2.8s1.7-1.7,3.3-2.5c-0.8-0.8-1.3-1.5-1.6-2.1c-0.3-0.6-0.5-1.3-0.5-1.9c0-1.2,0.4-2.1,1.3-2.9
			c0.9-0.7,2-1.1,3.4-1.1c1.3,0,2.4,0.3,3.2,1c0.8,0.6,1.2,1.5,1.2,2.7c0,0.9-0.3,1.7-0.9,2.4c-0.6,0.7-1.5,1.4-2.9,2.2l4.3,4.3
			c0.5-1,0.9-2,1.1-3.2l1.9,0.6c-0.3,1.5-0.8,2.9-1.5,4l2.4,2.3L307.4,352z M303.7,348.2l-5-5c-1.2,0.7-2,1.3-2.5,1.9
			c-0.5,0.6-0.7,1.2-0.7,1.9c0,0.8,0.4,1.5,1.1,2s1.7,0.8,2.8,0.8C301.2,349.9,302.6,349.4,303.7,348.2z M298.2,336.4
			c-0.4,0.4-0.7,0.9-0.7,1.5c0,0.5,0.1,0.9,0.4,1.3c0.2,0.4,0.7,1,1.4,1.7c1.1-0.6,1.9-1.2,2.4-1.7c0.4-0.5,0.7-1,0.7-1.5
			c0-0.6-0.2-1.1-0.6-1.4c-0.4-0.3-1-0.5-1.7-0.5C299.2,335.8,298.6,336,298.2,336.4z"/>
		<path class="st3" d="M318.5,334.2h7.4c1.8,0,3.5,0.4,4.9,1.1c1.4,0.7,2.5,1.8,3.3,3.1c0.8,1.3,1.2,2.8,1.2,4.6s-0.4,3.2-1.2,4.6
			c-0.8,1.3-1.9,2.4-3.3,3.1s-3.1,1.1-4.9,1.1h-7.4V334.2z M325.7,349.5c1.4,0,2.7-0.3,3.7-0.8c1.1-0.5,1.9-1.3,2.5-2.3
			c0.6-1,0.9-2.1,0.9-3.4s-0.3-2.4-0.9-3.4c-0.6-1-1.4-1.8-2.5-2.3c-1.1-0.5-2.3-0.8-3.7-0.8H321v13.2H325.7z"/>
		<path class="st3" d="M352.2,349.9c-0.8,0.6-1.7,1.1-2.9,1.5c-1.2,0.4-2.5,0.5-4,0.5c-1.6,0-3-0.2-4.1-0.6c-1.1-0.4-2-1-2.5-1.8
			c-0.6-0.8-0.9-1.6-0.9-2.6c0-1,0.3-1.9,0.9-2.6c0.6-0.7,1.3-1.2,2.2-1.6c-0.7-0.3-1.3-0.8-1.7-1.5c-0.4-0.7-0.6-1.5-0.6-2.3
			c0-0.9,0.3-1.7,0.8-2.5c0.5-0.7,1.3-1.3,2.4-1.8c1.1-0.4,2.4-0.7,3.9-0.7c1.1,0,2.1,0.1,3.2,0.4c1,0.2,1.9,0.6,2.7,1l-0.7,2
			c-1.5-0.8-3.2-1.2-5-1.2c-1.5,0-2.7,0.3-3.5,0.8s-1.2,1.2-1.2,2.1c0,0.9,0.3,1.5,0.9,2c0.6,0.5,1.5,0.7,2.6,0.7h4.5v2.1h-4.6
			c-1.3,0-2.4,0.2-3.1,0.7c-0.8,0.5-1.1,1.2-1.1,2.1c0,0.9,0.4,1.7,1.3,2.2s2.1,0.8,3.8,0.8c1.2,0,2.3-0.2,3.3-0.5
			c1.1-0.3,1.9-0.8,2.6-1.3L352.2,349.9z"/>
	</g>
	<g class="st0">
		<path class="st3" d="M370.5,334.2l-7.7,17.5h-2.5l-7.7-17.5h2.7l6.3,14.4l6.4-14.4H370.5z"/>
	</g>
	<g class="st0">
		<path class="st3" d="M385.5,349.9c-0.8,0.6-1.7,1.1-2.9,1.5c-1.2,0.4-2.5,0.5-4,0.5c-1.6,0-3-0.2-4.1-0.6c-1.1-0.4-2-1-2.5-1.8
			c-0.6-0.8-0.9-1.6-0.9-2.6c0-1,0.3-1.9,0.9-2.6c0.6-0.7,1.3-1.2,2.2-1.6c-0.7-0.3-1.3-0.8-1.7-1.5c-0.4-0.7-0.6-1.5-0.6-2.3
			c0-0.9,0.3-1.7,0.8-2.5c0.5-0.7,1.3-1.3,2.4-1.8c1.1-0.4,2.4-0.7,3.9-0.7c1.1,0,2.1,0.1,3.2,0.4c1,0.2,1.9,0.6,2.7,1l-0.7,2
			c-1.5-0.8-3.2-1.2-5-1.2c-1.5,0-2.7,0.3-3.5,0.8s-1.2,1.2-1.2,2.1c0,0.9,0.3,1.5,0.9,2c0.6,0.5,1.5,0.7,2.6,0.7h4.5v2.1h-4.6
			c-1.3,0-2.4,0.2-3.1,0.7c-0.8,0.5-1.1,1.2-1.1,2.1c0,0.9,0.4,1.7,1.3,2.2s2.1,0.8,3.8,0.8c1.2,0,2.3-0.2,3.3-0.5
			c1.1-0.3,1.9-0.8,2.6-1.3L385.5,349.9z"/>
	</g>
	<g class="st0">
		<path class="st3" d="M388.6,334.2h2.5v15.3h9.5v2.2h-12V334.2z"/>
	</g>
	<g class="st0">
		<path class="st3" d="M406.3,350.7c-1.4-0.8-2.5-1.8-3.3-3.2s-1.2-2.9-1.2-4.6s0.4-3.2,1.2-4.6c0.8-1.4,1.9-2.4,3.3-3.2
			c1.4-0.8,3-1.2,4.8-1.2c1.8,0,3.3,0.4,4.8,1.2c1.4,0.8,2.5,1.8,3.3,3.2c0.8,1.4,1.2,2.9,1.2,4.6s-0.4,3.2-1.2,4.6
			s-1.9,2.4-3.3,3.2c-1.4,0.8-3,1.2-4.8,1.2C409.3,351.9,407.7,351.5,406.3,350.7z M414.5,348.8c1-0.6,1.8-1.4,2.4-2.4
			s0.9-2.2,0.9-3.4s-0.3-2.4-0.9-3.4s-1.4-1.8-2.4-2.4c-1-0.6-2.2-0.9-3.5-0.9s-2.4,0.3-3.5,0.9c-1,0.6-1.9,1.4-2.5,2.4
			s-0.9,2.2-0.9,3.4s0.3,2.4,0.9,3.4s1.4,1.8,2.5,2.4c1,0.6,2.2,0.9,3.5,0.9S413.5,349.4,414.5,348.8z"/>
	</g>
	<g class="st0">
		<path class="st3" d="M436.3,335.8c1.3,1.1,2,2.6,2,4.5c0,1.9-0.7,3.4-2,4.5s-3.1,1.6-5.3,1.6h-4.3v5.3h-2.5v-17.5h6.8
			C433.2,334.2,435,334.7,436.3,335.8z M434.5,343.2c0.8-0.7,1.2-1.6,1.2-2.9c0-1.3-0.4-2.2-1.2-2.9c-0.8-0.7-2-1-3.6-1h-4.2v7.9
			h4.2C432.5,344.2,433.7,343.9,434.5,343.2z"/>
	</g>
	<g class="st0">
		<path class="st3" d="M465.8,335.8c1.1,1.2,1.7,2.9,1.7,5.1v10.9H465v-10.8c0-1.5-0.4-2.7-1.2-3.5c-0.8-0.8-1.9-1.2-3.2-1.2
			c-1.5,0-2.6,0.4-3.4,1.2c-0.8,0.8-1.3,2.1-1.3,3.8v10.5h-2.5v-10.8c0-1.5-0.4-2.7-1.1-3.5c-0.8-0.8-1.8-1.2-3.1-1.2
			c-1.5,0-2.6,0.4-3.5,1.2c-0.9,0.8-1.3,2.1-1.3,3.8v10.5H442v-17.5h2.4v2.5c0.5-0.9,1.2-1.5,2.2-2s2-0.7,3.3-0.7
			c1.3,0,2.4,0.3,3.4,0.8s1.6,1.2,2.1,2.1c0.5-0.9,1.3-1.7,2.3-2.2c1-0.5,2.2-0.8,3.5-0.8C463.1,334,464.7,334.6,465.8,335.8z"/>
		<path class="st3" d="M485.7,349.9c-0.8,0.6-1.7,1.1-2.9,1.5c-1.2,0.4-2.5,0.5-4,0.5c-1.6,0-3-0.2-4.1-0.6c-1.1-0.4-2-1-2.5-1.8
			c-0.6-0.8-0.9-1.6-0.9-2.6c0-1,0.3-1.9,0.9-2.6c0.6-0.7,1.3-1.2,2.2-1.6c-0.7-0.3-1.3-0.8-1.7-1.5c-0.4-0.7-0.6-1.5-0.6-2.3
			c0-0.9,0.3-1.7,0.8-2.5c0.5-0.7,1.3-1.3,2.4-1.8c1.1-0.4,2.4-0.7,3.9-0.7c1.1,0,2.1,0.1,3.2,0.4c1,0.2,1.9,0.6,2.7,1l-0.7,2
			c-1.5-0.8-3.2-1.2-5-1.2c-1.5,0-2.7,0.3-3.5,0.8s-1.2,1.2-1.2,2.1c0,0.9,0.3,1.5,0.9,2c0.6,0.5,1.5,0.7,2.6,0.7h4.5v2.1H478
			c-1.3,0-2.4,0.2-3.1,0.7c-0.8,0.5-1.1,1.2-1.1,2.1c0,0.9,0.4,1.7,1.3,2.2s2.1,0.8,3.8,0.8c1.2,0,2.3-0.2,3.3-0.5
			c1.1-0.3,1.9-0.8,2.6-1.3L485.7,349.9z"/>
		<path class="st3" d="M501.8,335.9c1.2,1.3,1.8,3.1,1.8,5.4v10.4h-2.5v-10.3c0-1.7-0.4-3-1.2-3.9s-2-1.3-3.5-1.3
			c-1.6,0-2.9,0.5-3.8,1.4c-0.9,0.9-1.4,2.3-1.4,4.2v9.9h-2.5v-17.5h2.4v2.5c1.2-1.8,3.1-2.7,5.8-2.7
			C499,334,500.6,334.6,501.8,335.9z"/>
		<path class="st3" d="M520.2,338c-1.7-1-3.5-1.5-5.5-1.7v15.5h-2.5v-15.5c-2,0.2-3.8,0.8-5.5,1.7l-0.9-2c2.2-1.3,4.8-2,7.6-2
			c2.8,0,5.4,0.7,7.6,2L520.2,338z"/>
	</g>
</g>
<g id="Group_140">
	<g>
		<defs>
			
				<rect id="SVGID_1_" x="516.2" y="46.8" transform="matrix(0.174 -0.9847 0.9847 0.174 377.0987 650.7051)" width="120.4" height="107.5"/>
		</defs>
		<clipPath id="SVGID_00000013902505779042440100000013843100720479021230_">
			<use xlink:href="#SVGID_1_"  style="overflow:visible;"/>
		</clipPath>
		<g style="clip-path:url(#SVGID_00000013902505779042440100000013843100720479021230_);">
			<g id="Group_23">
				<g id="Group_22">
					<g>
						<defs>
							
								<rect id="SVGID_00000011013510275382845390000002845136834070867362_" x="516.3" y="47" transform="matrix(0.174 -0.9847 0.9847 0.174 377.0825 650.7072)" width="120.2" height="107.3"/>
						</defs>
						<clipPath id="SVGID_00000054951928944843606650000002476433050638809779_">
							<use xlink:href="#SVGID_00000011013510275382845390000002845136834070867362_"  style="overflow:visible;"/>
						</clipPath>
						<g style="clip-path:url(#SVGID_00000054951928944843606650000002476433050638809779_);">
							<g id="Group_21">
								<g id="Group_20">
									<g>
										<defs>
											
												<rect id="SVGID_00000116214618790251407120000012266045559260154812_" x="516.3" y="47" transform="matrix(0.174 -0.9847 0.9847 0.174 377.0824 650.7072)" width="120.2" height="107.3"/>
										</defs>
										<clipPath id="SVGID_00000079471451058510572960000005612999064524528038_">
											<use xlink:href="#SVGID_00000116214618790251407120000012266045559260154812_"  style="overflow:visible;"/>
										</clipPath>
										<g style="clip-path:url(#SVGID_00000079471451058510572960000005612999064524528038_);">
											<g id="Group_19">
												<g id="Path_53">
													<path class="st7" d="M609.6,62.5c0.5,2.1,0,4-1.1,4.3s-2.4-1.3-2.8-3.4c-0.5-2.1,0-4,1.1-4.3
														C607.9,58.9,609.1,60.4,609.6,62.5"/>
												</g>
												<g id="Path_54">
													<path class="st7" d="M602.3,64c1.2,1.6,1.4,3.4,0.5,4.1s-2.6,0-3.8-1.6s-1.4-3.4-0.5-4.1
														C599.4,61.7,601.1,62.4,602.3,64"/>
												</g>
												<g id="Path_55">
													<path class="st2" d="M523.2,130.8c0.1,0.8-0.3,1.6-0.8,1.6s-1.1-0.6-1.2-1.4c-0.1-0.5,0.1-1.1,0.4-1.4
														c0.1-0.1,0.3-0.2,0.4-0.2C522.6,129.3,523.1,129.9,523.2,130.8"/>
												</g>
												<g id="Path_56">
													<path class="st7" d="M530.9,114.2c1.9,8.2-2.6,12.6-4.1,13.8l-1.3-0.7c2.8-1.3,1.3-11.7,4.2-13.6
														c0.4-0.2,0.8-0.1,1,0.3C530.9,114,530.9,114.1,530.9,114.2"/>
												</g>
												<g id="Path_57">
													<path class="st8" d="M551.9,51.9c27.9-24.4,46.7-4.1,35.7,0.6c-0.8,0.3-1.7,0.6-2.6,0.7c-17.9,7.1-38.5,35.3-42.1,46.2
														c-1.2,3.6-1.8,6.5-2.5,9.3c0,0,0,0,0,0.1c-1.3,5.7-2.8,10.6-9.7,19.1C541.4,109.9,522.1,77.9,551.9,51.9"/>
												</g>
												<g id="Path_58">
													<path class="st7" d="M521.2,131c0.1,0.8,0.6,1.5,1.2,1.4s0.9-0.8,0.8-1.6l0.7,0c0,0.1,0,0.1,0,0.2
														c0.1,0.8,0.8,1.3,1.5,1.3c0.7-0.2,1.2-1,1-1.7c-0.1-0.6-0.5-1.1-1.1-1.3l1.1-0.8l0.9,0.4l3.6-1
														c6.8-8.5,8.3-13.4,9.7-19.1c0,0,0,0,0-0.1c0.8-2.4,21-44.4,47.3-55.7c2.8-1.2,5.7-2.1,8.7-2.5
														c43.9-7.2,47.3,22.8,6.2,29.7c-1.4,0.4-2.1,1.9-1.7,3.3c3,22.1-2.2,26.4-14.2,25.5c-2.7-0.2-5.8-0.7-9.2-1.2
														c-15.5,6.1-23.8,16.8-41.6,25.5l0.8,0.8c0,3.9,4.4,6.4,4.4,6.4c7.6,6.1,5.2,4.4,17.9,5.6c11.6,3.9-4.5,11.3-10.3,8.3
														c-4.5,1.1-12.8-4.5-17.3-9.7c-1-1.1-1.9-2.4-2.6-3.8c-0.2-0.4-0.3-0.7-0.4-1.1c-0.8,0.1-1.5,0-2.3-0.2
														c-1.4-0.2-2.5-1.2-2.8-2.5c-0.2-0.7-0.2-1.5,0-2.2c-1.8-0.1-4.6-3.3-2.5-5.5l0.8,0.3C521.3,130,521.1,130.5,521.2,131
														 M610.9,70c0.4-4.3,2-5,2-5c1.1-25.3-33.8-1-11.8,5.1c0,0,1.6,0.5,2.8,3C606.1,71.8,608.5,70.8,610.9,70"/>
												</g>
												<g id="Path_59">
													<path class="st7" d="M607.9,146.6c33.7,19.3-9.8,31.3-30.1,4.6c-14.8-11.3-19.9-2.5-36.7-10.8c0,0-4.4-2.5-4.4-6.4
														c11.5-2.7,29.7-17.5,29.7-17.5c7.7-5.9,14.5-7.8,20.2-7.2C602.6,111.1,610.3,133,607.9,146.6"/>
												</g>
												<g id="Path_60">
													<path class="st2" d="M612.9,64.9c0,0-1.6,0.7-2,5c-2.4,0.8-4.8,1.8-7,3c-1.2-2.5-2.8-3-2.8-3
														C579.1,63.9,614,39.6,612.9,64.9 M608.5,66.8c1.1-0.2,1.6-2.2,1.1-4.3c-0.5-2.1-1.7-3.7-2.8-3.4s-1.6,2.2-1.1,4.3
														C606.1,65.5,607.4,67,608.5,66.8 M602.8,68c0.9-0.7,0.7-2.5-0.5-4.1c-1.2-1.5-2.9-2.3-3.8-1.6s-0.7,2.5,0.5,4.1
														S601.9,68.7,602.8,68"/>
												</g>
												<g id="Path_61">
													<path class="st2" d="M526.4,130.5c0.2,0.7-0.2,1.5-1,1.7c-0.8,0.1-1.5-0.5-1.5-1.3c0-0.1,0-0.1,0-0.2
														c-0.1-0.7,0.3-1.4,1-1.6c0.1,0,0.3,0,0.4,0C525.9,129.4,526.3,129.9,526.4,130.5"/>
												</g>
												<g id="Path_62">
													<path class="st7" d="M523.9,130.8l-0.7,0c-0.1-0.8-0.6-1.5-1.2-1.4c-0.2,0-0.3,0.1-0.4,0.2l-0.8-0.3
														c0.7-0.7,1.6-1.2,2.6-1.4c-0.2-2.4-6-13.7-3.1-14.4c3.9,2.7,3.9,11.6,4.9,13.9c0.1,0,0.3-0.1,0.4-0.1l1.3,0.7
														c-0.2,0.1-0.3,0.2-0.5,0.4l-1.1,0.8c-0.1,0-0.3,0-0.4,0C524.2,129.4,523.8,130.1,523.9,130.8"/>
												</g>
											</g>
										</g>
									</g>
								</g>
							</g>
						</g>
					</g>
				</g>
				<g id="Path_63">
					<path class="st8" d="M524,144.2l-1-0.2c0-0.1,0.6-2.5,0.9-3.2l0.1-0.1c0.5-0.7,1.2-1.3,2-1.6c0.2-0.1,0.5-0.2,0.8-0.2v1
						c-0.1,0-0.2,0-0.3,0.1c-0.7,0.3-1.3,0.8-1.7,1.3C524.6,141.8,524.1,143.6,524,144.2z"/>
				</g>
				<g id="Path_64">
					<path class="st8" d="M526.4,146l-1-0.3l1.2-3.9l0.1-0.1c0.6-0.5,1.3-1,2-1.4c0.1,0,0.2-0.1,0.3-0.1l0.2,1c0,0,0,0,0,0
						c-0.6,0.3-1.2,0.7-1.7,1.1L526.4,146z"/>
				</g>
				<g id="Path_65">
					<path class="st8" d="M530.8,149.7l-1-3.6l0-0.1c0.2-0.8,0.6-1.5,1.3-1.9c0.1-0.1,0.2-0.1,0.3-0.1l0.3,0.9c0,0-0.1,0-0.1,0.1
						c-0.4,0.2-0.7,0.6-0.8,1.1l0.9,3.4L530.8,149.7z"/>
				</g>
				<g id="Path_66">
					<path class="st8" d="M518.7,139.9l-0.9-0.4c0.3-0.8,2.1-1.9,2.6-2.3l0.1-0.1c0.9-0.3,1.8-0.5,2.7-0.7l0.3,1c-0.1,0-0.2,0-0.2,0
						c-0.8,0.1-1.6,0.3-2.4,0.6C519.9,138.8,518.8,139.6,518.7,139.9z"/>
				</g>
				<g id="Path_67">
					<path class="st2" d="M603.7,73.3l-0.1-0.2c-1.1-2.3-2.6-2.8-2.6-2.8c-7.3-2-7.7-5.9-7.3-8c1-4.8,7.7-9.5,12.9-8.8
						c2.6,0.3,7,2.2,6.6,11.5l0,0.2l-0.1,0.1c0,0-1.5,0.7-1.9,4.8l0,0.2l-0.2,0.1c-2.4,0.8-4.8,1.8-7,3L603.7,73.3z M605.6,53.9
						c-4.8,0-10.6,4.2-11.4,8.5c-0.7,3.3,1.8,6,7,7.4c0.1,0,1.6,0.5,2.8,2.9c2.2-1.1,4.4-2.1,6.7-2.9c0.4-3.6,1.6-4.7,2-5
						c0.2-6.5-1.9-10.3-6.1-10.8C606.2,53.9,605.9,53.9,605.6,53.9z"/>
				</g>
				<g id="Path_68">
					<path class="st2" d="M602,68.5c-0.1,0-0.2,0-0.3,0c-1-0.1-2-0.9-2.8-1.9c-1.3-1.7-1.5-3.6-0.5-4.4c0.3-0.3,0.8-0.4,1.3-0.3
						c1,0.1,2,0.9,2.9,1.9l0.1,0.2l0,0c0.7,1,1.1,2.2,1,3.1c-0.1,0.5-0.3,0.9-0.6,1.1C602.7,68.4,602.4,68.5,602,68.5z M599.3,62.3
						c-0.3,0-0.5,0.1-0.7,0.2c-0.8,0.6-0.5,2.3,0.6,3.7c0.7,1,1.7,1.6,2.5,1.7c0.4,0,0.7,0,0.9-0.2c0.2-0.2,0.4-0.4,0.4-0.8
						c0.1-0.8-0.3-1.9-1-2.9l-0.1-0.2l0,0c-0.7-0.9-1.6-1.5-2.4-1.6C599.5,62.3,599.4,62.3,599.3,62.3z"/>
				</g>
				<g id="Path_69">
					<path class="st2" d="M608.2,67.1c-1.2,0-2.4-1.5-2.8-3.6c-0.3-1.5-0.2-3,0.4-3.8c0.3-0.4,0.6-0.7,1-0.7
						c1.3-0.3,2.6,1.3,3.1,3.6l0.1,0.3h0c0.3,1.4,0.1,2.7-0.4,3.5c-0.3,0.4-0.6,0.7-1,0.7C608.4,67,608.3,67.1,608.2,67.1z
						 M607,59.3c-0.1,0-0.1,0-0.2,0c-0.3,0.1-0.5,0.2-0.7,0.5c-0.5,0.7-0.6,2.1-0.3,3.5c0.4,2,1.6,3.4,2.5,3.2
						c0.3-0.1,0.5-0.2,0.7-0.5c0.5-0.7,0.6-2.1,0.3-3.5l-0.1-0.3h0C608.8,60.6,607.9,59.3,607,59.3z"/>
				</g>
				<g id="Path_70">
					<path class="st2" d="M525.3,132.4c-0.9,0-1.6-0.6-1.7-1.5c0-0.1,0-0.1,0-0.2c-0.1-0.8,0.4-1.6,1.2-1.8c0.2,0,0.3,0,0.5,0l0,0
						c0.7,0.2,1.2,0.8,1.3,1.5c0.2,0.8-0.3,1.8-1.1,2C525.5,132.4,525.4,132.4,525.3,132.4z M525.1,129.4c-0.1,0-0.1,0-0.2,0
						c-0.5,0.1-0.9,0.7-0.8,1.3l0,0.1c0,0,0,0.1,0,0.1c0.1,0.6,0.6,1.1,1.3,1c0.6-0.2,0.9-0.8,0.8-1.4c-0.1-0.5-0.5-1-1-1.1
						C525.2,129.4,525.1,129.4,525.1,129.4z"/>
				</g>
				<g id="Path_71">
					<path class="st2" d="M522.3,132.6c-0.2,0-0.5-0.1-0.7-0.3c-0.4-0.3-0.6-0.8-0.7-1.4c-0.1-0.6,0.1-1.2,0.5-1.6
						c0.2-0.2,0.4-0.2,0.6-0.3c0.3,0,0.5,0,0.8,0.2c0.4,0.3,0.6,0.8,0.7,1.4l0,0.3h0c0,0.5-0.1,0.9-0.4,1.2
						c-0.2,0.2-0.4,0.4-0.7,0.4C522.4,132.6,522.3,132.6,522.3,132.6z M522.1,129.6C522.1,129.6,522.1,129.6,522.1,129.6
						c-0.2,0-0.3,0.1-0.3,0.1c-0.3,0.3-0.4,0.8-0.3,1.2c0,0.5,0.2,0.8,0.5,1.1c0.1,0.1,0.2,0.2,0.4,0.1c0.2,0,0.3-0.1,0.4-0.2
						c0.2-0.3,0.3-0.7,0.3-1.1l0-0.2c-0.1-0.4-0.3-0.7-0.5-0.9C522.4,129.7,522.3,129.6,522.1,129.6z"/>
				</g>
				<g id="Path_72">
					<path class="st2" d="M535.5,146.4l-0.2-0.5c0.1,0,0.2-0.1,0.3-0.1c0.8-0.3,2.7-0.9,3.3-2.5l0.5,0.2c-0.7,1.8-2.8,2.5-3.6,2.8
						C535.7,146.4,535.6,146.4,535.5,146.4z"/>
				</g>
				<g id="Path_73">
					<path class="st2" d="M540.5,149.9c-0.4,0-0.8-0.1-1.1-0.3l0.2-0.4c1.1,0.6,2.7-0.2,3.8-1.4c0.7-0.7,1.2-1.9,0.7-2.5l0.4-0.3
						c0.6,0.8,0.3,2-0.7,3.2C542.9,149.1,541.7,149.9,540.5,149.9z"/>
				</g>
				<g id="Path_74">
					<path class="st2" d="M547.4,152c-0.1,0-0.2,0-0.2,0l0.2-0.5c0.3,0.1,0.8-0.3,1.6-1.3c1-1.4,1.4-2.7,1.3-2.9l0-0.5
						c0.2,0,0.4,0.1,0.4,0.3c0.3,0.8-1,3.1-2,4.2C548.2,151.8,547.7,152,547.4,152z"/>
				</g>
				<g id="Path_75">
					<path class="st2" d="M554.4,153.2l-0.2-0.5c0.6-0.2,1.6-1.4,2-2.5c0.2-0.4,0.2-0.7,0.1-0.9l0.5-0.2c0.1,0.3,0.1,0.8-0.1,1.3
						C556.3,151.6,555.2,152.9,554.4,153.2z"/>
				</g>
				<g id="Path_76">
					<path class="st2" d="M533.8,138.2l-0.5-0.2c0.6-1.4,0.5-3-0.1-4.3c-0.3-0.7-0.8-1.1-1.2-1.3l0.2-0.5c0.6,0.2,1.1,0.7,1.5,1.5
						C534.4,135,534.4,136.7,533.8,138.2z"/>
				</g>
				<g id="Path_77">
					<path class="st2" d="M530.6,140.2l-0.1-0.5c0.1,0,0.1,0,0.2-0.1c0.8-0.4,1.1-1.3,0.8-2.1l0.5-0.2c0.5,1.1,0,2.2-1.1,2.7
						C530.8,140.2,530.7,140.2,530.6,140.2z"/>
				</g>
				<g id="Path_78">
					<path class="st2" d="M534,131.9c0,0-2.1-2.2-3.8-1.5l-0.2-0.5c2-0.7,4.3,1.5,4.3,1.6L534,131.9z"/>
				</g>
			</g>
		</g>
	</g>
</g>
</svg>
